<svg fill="#000000" height="800px" width="800px" version="1.1" id="Layer_1" xmlns="http://www.w3.org/2000/svg"
     xmlns:xlink="http://www.w3.org/1999/xlink"
     viewBox="0 0 512 512" xml:space="preserve">
	<g id="r1">
<g>
	<g>
		<path d="M375.076,239.082c10.398-16.628,34.422-60.742,34.422-113.373c0-65.749-37.479-118.207-39.074-120.408
			C368.007,1.971,364.142,0,360.029,0s-7.978,1.971-10.393,5.302c-1.595,2.201-39.075,54.659-39.075,120.408
			c0,29.693,7.647,56.674,16.18,77.541c-21.398-10.391-45.401-16.228-70.743-16.228c-25.336,0-49.334,5.832-70.728,16.22
			c8.532-20.865,16.178-47.845,16.178-77.533c0-65.749-37.479-118.207-39.074-120.408C159.96,1.971,156.095,0,151.981,0
			s-7.978,1.971-10.393,5.302c-1.595,2.201-39.075,54.659-39.075,120.407c0,52.622,24.015,96.731,34.417,113.365
			c-26.922,29.008-43.413,67.827-43.413,110.431C93.518,439.106,166.407,512,256,512c41.889,0,81.662-15.899,111.996-44.767
			c5.135-4.886,5.337-13.011,0.451-18.147c-4.888-5.134-13.014-5.338-18.147-0.449c-22.421,21.336-50.965,34.255-81.464,37.093
			v-47.79c9.943-5.773,25.029-17.118,25.029-32.821c0-20.878-16.985-37.864-37.864-37.864c-20.879,0-37.864,16.986-37.864,37.864
			c0,15.703,15.085,27.048,25.029,32.821v47.781c-69.44-6.493-123.976-65.102-123.976-136.217
			c0-75.438,61.373-136.811,136.811-136.811c75.438,0,136.811,61.373,136.811,136.811c0,16.905-3.042,33.401-9.041,49.028
			c-2.54,6.618,0.765,14.042,7.383,16.582c6.615,2.54,14.041-0.765,16.583-7.382c7.131-18.574,10.746-38.164,10.746-58.229
			C418.481,306.905,401.994,268.09,375.076,239.082z M255.999,392.927c6.686,0,12.132,5.409,12.194,12.081
			c-0.548,2.229-5.759,6.902-12.19,10.689c-6.09-3.605-11.615-8.294-12.197-10.689C243.867,398.336,249.313,392.927,255.999,392.927
			z M151.981,213.674c-10.062-18.967-23.797-51.532-23.797-87.964c0-36.47,13.757-69.06,23.818-88.018
			c10.058,18.905,23.775,51.401,23.775,88.018C175.778,162.146,162.042,194.713,151.981,213.674z M336.232,125.71
			c0-36.47,13.757-69.06,23.818-88.018c10.058,18.905,23.775,51.401,23.775,88.018c0,36.436-13.736,69.003-23.797,87.964
			C349.967,194.708,336.232,162.142,336.232,125.71z"/>
	</g>
</g>
        <g>
	<g>
		<path d="M387.989,421.27c-5.909-3.915-13.875-2.3-17.788,3.611c-0.314,0.475-0.631,0.947-0.95,1.417
			c-3.979,5.867-2.448,13.848,3.419,17.827c2.206,1.497,4.712,2.214,7.193,2.214c4.112,0,8.153-1.973,10.634-5.632
			c0.37-0.547,0.738-1.096,1.103-1.647C395.515,433.149,393.899,425.185,387.989,421.27z"/>
	</g>
</g>
        <g>
	<g>
		<path d="M165.51,302.066c-21.585,0-39.148,17.561-39.148,39.148c0,7.089,5.748,12.835,12.835,12.835s12.835-5.746,12.835-12.835
			c0-7.432,6.045-13.477,13.477-13.477s13.477,6.045,13.477,13.477c0,7.089,5.748,12.835,12.835,12.835
			c7.088,0,12.835-5.746,12.835-12.835C204.657,319.627,187.095,302.066,165.51,302.066z"/>
	</g>
</g>
        <g>
	<g>
		<path d="M346.488,302.066c-21.585,0-39.148,17.561-39.148,39.148c0,7.089,5.748,12.835,12.835,12.835s12.835-5.746,12.835-12.835
			c0-7.432,6.045-13.477,13.477-13.477s13.477,6.045,13.477,13.477c0,7.089,5.748,12.835,12.835,12.835
			c7.088,0,12.835-5.746,12.835-12.835C385.635,319.627,368.073,302.066,346.488,302.066z"/>
	</g>
</g>
	</g>

	<g id="r2">
		<path d="M84.573,224.787c-1.963,0-3.924-0.406-5.776-1.217c-3.531-1.544-6.249-4.37-7.653-7.959l-4.163-10.634
	c-1.404-3.588-1.328-7.509,0.216-11.039c1.284-2.938,3.457-5.313,6.218-6.837c-0.048-0.124-0.095-0.25-0.141-0.374
	c-1.934,1.084-4.634,2.107-7.632,1.851c-3.478-0.302-6.531-2.193-9.077-5.623c-5.546-7.468-2.681-20.854,6.386-29.84
	c5.096-5.05,13.029-8.361,17.691-9.992c-8.941-8.39-14.523-20.23-14.523-33.333c0-12.771,5.306-24.803,14.663-33.489
	c-3.705-3.162-10.29-10.788-18.188-28.716C54.562,29.355,55.34,14.12,56.518,6.661c0.386-2.438,1.867-4.48,4.064-5.603
	c2.19-1.12,4.707-1.123,6.903-0.009c6.752,3.43,19.432,12.145,28.484,31.99c5.793,12.7,6.461,25.788,6.403,31.88
	c6.596-1.484,13.565-1.541,20.24-0.121c-0.168-6.496,0.337-18.854,5.336-30.894c8.363-20.143,20.736-29.29,27.367-32.949
	c2.157-1.19,4.671-1.271,6.899-0.229c2.235,1.047,3.786,3.037,4.255,5.462c1.434,7.414,2.734,22.614-4.664,41.106
	c-7.109,17.768-13.343,25.674-16.932,29.07c9.312,8.684,14.601,20.719,14.601,33.425c0,13.211-5.674,25.139-14.746,33.54
	c4.718,1.695,12.219,4.94,17.107,9.785c9.066,8.985,11.931,22.372,6.386,29.84c-2.546,3.43-5.601,5.321-9.078,5.623
	c-3.102,0.264-5.862-0.831-7.806-1.95c-0.059,0.158-0.117,0.316-0.178,0.474c2.761,1.523,4.933,3.898,6.218,6.837
	c1.544,3.53,1.62,7.451,0.216,11.039l-4.163,10.634c-1.404,3.589-4.122,6.415-7.653,7.959c-3.531,1.545-7.452,1.621-11.039,0.216
	l-0.503-0.196c-3.592-1.406-6.418-4.124-7.962-7.655c-0.571-1.306-0.941-2.665-1.11-4.041c-4.145,1.354-8.46,2.037-12.877,2.037
	c-4.42,0-8.738-0.685-12.885-2.04c-0.626,5.095-3.954,9.699-9.061,11.698l-0.509,0.198C88.13,224.454,86.351,224.787,84.573,224.787
	z M77.485,190.743l-0.506,0.198c-2.346,0.917-4.192,2.693-5.201,5s-1.059,4.869-0.141,7.214l4.163,10.634
	c0.918,2.345,2.693,4.191,5,5.2s4.869,1.06,7.214,0.141l0.509-0.198c2.342-0.917,4.188-2.693,5.197-5
	c0.676-1.545,0.921-3.204,0.734-4.836c-0.061-0.164-0.104-0.334-0.129-0.511c-0.069-0.491-0.17-0.965-0.301-1.416
	c-0.051-0.15-0.105-0.302-0.164-0.451l-4.163-10.634c-0.172-0.438-0.373-0.857-0.601-1.254c-1.871-3.163-5.336-4.945-8.941-4.706
	C79.261,190.197,78.363,190.399,77.485,190.743L77.485,190.743z M130.121,209.096c-0.187,1.632,0.059,3.291,0.734,4.836
	c1.009,2.307,2.855,4.083,5.2,5.001l0.503,0.196c2.349,0.918,4.911,0.869,7.217-0.14c2.307-1.009,4.083-2.855,5-5.2l4.163-10.634
	c0.918-2.345,0.868-4.907-0.141-7.214s-2.855-4.083-5.2-5l-0.507-0.198c-0.79-0.31-1.604-0.509-2.426-0.599
	c-3.717-0.349-7.323,1.476-9.229,4.756c-0.211,0.378-0.398,0.773-0.559,1.184l0,0l-4.163,10.634
	c-0.059,0.15-0.113,0.301-0.164,0.452c-0.131,0.45-0.231,0.924-0.301,1.415C130.225,208.762,130.182,208.932,130.121,209.096z
	 M99.026,206.446c4.229,1.649,8.683,2.484,13.262,2.484s9.033-0.835,13.262-2.484c0.069-0.26,0.146-0.52,0.231-0.777
	c0.112-0.375,0.237-0.741,0.377-1.097l3.965-10.128c0.288-0.736,0.628-1.436,1.013-2.096c1.526-2.679,3.863-4.787,6.74-6.046
	c2.262-0.988,4.68-1.379,7.078-1.156c0.507,0.042,1.015,0.11,1.523,0.207c1.585-4.152,2.388-8.516,2.388-13
	c0-3.189-0.404-6.313-1.188-9.314c-0.537,3.18-1.813,6.55-4.197,9.969c-10.221,14.654-28.854,14.316-30.768,14.239
	c-1.904,0.077-20.543,0.42-30.769-14.24c-2.9-4.158-4.16-8.244-4.446-12.004c-1.176,3.614-1.785,7.432-1.785,11.351
	c0,3.306,0.437,6.546,1.3,9.684c0.007,0.022,0.013,0.045,0.02,0.067c0.304,1.096,0.66,2.18,1.068,3.249
	c0.803-0.152,1.607-0.236,2.405-0.254c5.133-0.161,10.117,2.507,12.813,7.042c0.437,0.721,0.817,1.489,1.136,2.303l3.965,10.128
	c0.141,0.359,0.268,0.729,0.38,1.107C98.881,205.934,98.957,206.19,99.026,206.446z M152.819,181.648
	c1.222,0.868,3.479,2.172,5.921,1.945c1.979-0.18,3.82-1.398,5.47-3.619c3.607-4.86,2.102-15.386-5.892-23.309
	c-3.018-2.99-7.371-5.337-11.173-6.993c4.376,6.684,6.72,14.49,6.72,22.681C153.865,175.513,153.514,178.619,152.819,181.648z
	 M77.346,149.803c-3.73,1.648-7.937,3.95-10.876,6.863c-7.994,7.924-9.5,18.449-5.892,23.309c1.649,2.221,3.489,3.439,5.47,3.619
	c2.305,0.217,4.481-0.957,5.738-1.818c-0.715-3.069-1.075-6.219-1.075-9.422C70.711,164.217,73.025,156.458,77.346,149.803z
	 M112.712,182.244c0.044,0,0.089,0.001,0.132,0.004c0.168,0.01,17.591,0.722,26.533-12.101c0-0.001,0-0.001,0-0.001
	c6.342-9.092,2.872-17.746,0.507-21.79c-0.126-0.144-0.252-0.285-0.379-0.428c-1.468,0.949-3.646,2.176-6.613,3.398
	c-6.086,2.874-12.897,4.484-20.083,4.486c-0.062,0-0.103,0-0.122,0c-0.01,0-0.022,0-0.065,0c-0.041,0-0.102,0-0.18-0.001
	c-3.061-0.022-6.05-0.337-8.945-0.917c-6.352-1.128-12.343-3.486-17.708-6.989c-2.378,3.813-6.383,12.724,0.256,22.24
	c8.94,12.82,26.361,12.107,26.539,12.101C112.625,182.245,112.668,182.244,112.712,182.244z M109.426,150.574
	c2.754,0.173,5.568,0.094,8.286-0.232c2.41-0.367,5.578-1.021,9.256-2.184c0.348-0.109,0.687-0.221,1.017-0.332
	c3.574-1.359,6.951-3.197,10.06-5.488c0.138-0.102,0.282-0.188,0.433-0.257c9.734-7.517,15.999-19.197,15.999-32.291
	c0-12.115-5.407-23.55-14.835-31.373c-0.784-0.65-1.095-1.712-0.785-2.683l0.149-0.469c0.166-0.521,0.498-0.974,0.945-1.287
	c1.891-1.327,8.719-7.308,17.214-28.541c6.924-17.306,5.728-31.424,4.398-38.3c-0.162-0.836-0.696-1.522-1.466-1.883
	c-0.764-0.356-1.626-0.33-2.364,0.079c-6.059,3.344-17.386,11.751-25.166,30.489c-5.703,13.735-5.112,27.985-4.795,32.025
	c0.064,0.818-0.277,1.616-0.914,2.134c-0.636,0.52-1.485,0.694-2.275,0.462c-7.884-2.287-16.355-2.212-24.109,0.146
	c-0.795,0.241-1.654,0.072-2.299-0.448c-0.645-0.521-0.989-1.329-0.92-2.155c0.015-0.17,1.346-17.133-5.833-32.872
	C83,16.654,71.392,8.642,65.222,5.509c-0.751-0.382-1.613-0.381-2.366,0.003c-0.756,0.386-1.266,1.09-1.398,1.93
	c-1.093,6.917-1.804,21.068,5.712,38.128c10.721,24.336,18.588,28.18,18.666,28.215c0.828,0.328,1.388,1.057,1.521,1.937
	c0.134,0.88-0.241,1.751-0.935,2.31c-9.725,7.834-15.303,19.41-15.303,31.76c0,16.643,10.12,31.002,24.622,37.43
	c0.839,0.316,1.743,0.632,2.712,0.938C103.087,149.623,106.912,150.28,109.426,150.574z M120.245,143.384
	c-0.64,0-1.279-0.244-1.768-0.732l-6.825-6.825l-6.763,6.762c-0.977,0.977-2.559,0.977-3.535,0s-0.977-2.56,0-3.535l7.798-7.797
	v-9.727c-3.931-0.917-6.82-3.917-6.82-7.467c0-4.276,4.195-7.756,9.352-7.756s9.352,3.479,9.352,7.756
	c0,3.568-2.92,6.581-6.883,7.481v9.712l7.86,7.86c0.977,0.977,0.977,2.559,0,3.535C121.525,143.14,120.885,143.384,120.245,143.384z
	 M111.684,111.307c-2.564,0-4.352,1.452-4.352,2.756s1.787,2.756,4.352,2.756s4.352-1.452,4.352-2.756
	S114.248,111.307,111.684,111.307z M130.031,105.229c-4.087,0-7.411-3.324-7.411-7.411s3.324-7.411,7.411-7.411
	c4.087,0,7.411,3.324,7.411,7.411S134.118,105.229,130.031,105.229z M130.031,95.407c-1.329,0-2.411,1.082-2.411,2.411
	s1.082,2.411,2.411,2.411s2.411-1.082,2.411-2.411S131.361,95.407,130.031,95.407z M93.335,105.229
	c-4.087,0-7.411-3.324-7.411-7.411s3.324-7.411,7.411-7.411s7.411,3.324,7.411,7.411S97.422,105.229,93.335,105.229z M93.335,95.407
	c-1.329,0-2.411,1.082-2.411,2.411s1.082,2.411,2.411,2.411s2.411-1.082,2.411-2.411S94.664,95.407,93.335,95.407z M131.914,73.91
	c-0.021,0-0.041,0-0.063-0.001c-1.38-0.033-2.472-1.18-2.438-2.561c0.019-0.776,0.553-19.204,8.018-35.322
	c0.581-1.253,2.067-1.797,3.319-1.218c1.253,0.58,1.798,2.066,1.218,3.319c-7.034,15.187-7.552,33.164-7.557,33.344
	C134.379,72.831,133.267,73.91,131.914,73.91z M92.695,73.91c-1.352,0-2.464-1.079-2.498-2.438
	c-0.005-0.181-0.538-18.19-7.557-33.345c-0.58-1.253-0.035-2.739,1.218-3.319c1.254-0.579,2.739-0.035,3.319,1.218
	c7.465,16.118,7.999,34.546,8.018,35.322c0.034,1.38-1.057,2.525-2.437,2.561C92.737,73.909,92.715,73.91,92.695,73.91z"/>
	</g>

	<g id="r3">
	<g>
	<g>
		<path d="M141.379,87.465c4.917-17.926,13.507-36.279,10.459-55.157c-2.221-13.756-13.026-31.581-29.314-28.693
			c-12.943,2.295-16.801,23.475-18.777,33.486c-2.613,13.242-4.075,28.038-2.873,41.746c-0.245-0.012-0.48-0.046-0.745-0.007
			c-2.223,0.429-4.466,0.549-6.721,0.528C92.518,57.778,98.586,0.165,70.049,0C33.268-0.21,48.299,59.693,51.452,84.188
			c-28.642,1.609-44.138,26.72-30.339,53.909c7.068,13.927,22.585,21.356,39.272,25.579c-7.228,7.947-8.513,20.104,3.668,25.148
			c10.134,4.196,18.468-0.288,23.101-7.967c1.462,1.247,3.355,2.141,5.885,2.411c4.506,0.483,7.891-2.004,10.224-5.431
			c3.31,8.004,11.048,13.306,20.871,12.265c5.331-0.564,10.089-3.274,12.863-7.914c2.521-4.213,2.612-11.021,0.261-15.762
			c16.036-4.578,29.676-14.273,35.356-31.988C179.566,112.756,166.003,83.112,141.379,87.465z M83.728,168.103
			c-0.003,0-0.006-0.001-0.009-0.001c-0.558,9.055-6.109,17.142-16.036,14.356c-10.093-2.831-5.079-11.727-0.566-17.241
			c5.622,1.138,11.247,1.967,16.647,2.601C83.749,167.913,83.74,168.008,83.728,168.103z M95.399,175.527
			c-3.868,2.347-4.74-1.69-4.631-4.738c0.112-0.726,0.183-1.459,0.241-2.194c3.015,0.285,5.867,0.518,8.573,0.732
			C98.973,171.865,97.849,174.042,95.399,175.527z M131.194,177.97c-1.01,3.244-4.811,4.957-7.904,5.327
			c-8.234,0.984-14.483-4.849-17.048-12.031c0.139-0.507,0.296-1.018,0.399-1.514c7.841,0.268,15.88-0.223,23.585-1.692
			C130.927,171.367,132.327,174.33,131.194,177.97z M149.782,152.784c-14.869,10.593-36.717,9.739-54.035,8.412
			c-17.419-1.335-35.534-4.91-51.345-12.477c-9.801-4.69-16.607-12.356-20.042-22.606c-7.079-21.13,11.638-32.95,28.737-36.262
			c0.903,0.464,2.046,0.318,2.713-0.461c0.082-0.012,0.166-0.031,0.248-0.042c2.746-0.379,2.358-4.185,0.2-5.093
			C55.091,63.939,44.572,3.494,71.188,7.849c20.49,3.353,13.144,60.563,14.85,75.201c0.263,2.254,1.553,3.563,3.816,3.816
			c4.982,0.556,8.321,0.566,12.459-2.26c1.151,0.83,2.889,0.791,3.138-0.995c3.04-21.766,1.856-45.843,12.172-65.861
			c2.785-5.405,6.982-8.483,12.948-5.741c11.029,5.068,14.056,17.721,14.145,28.626c0.139,16.88-7.808,32.696-11.673,48.804
			c-0.729,3.042,1.998,4.934,4.358,4.672c0.863,1.14,2.264,1.865,4.06,1.439c17.643-4.195,22.799,11.561,24.324,24.431
			C167.389,133.527,160.521,145.134,149.782,152.784z"/>
		<path d="M78.659,48.317c-0.802-8.035-1.17-24.085-9.669-28.425c-6.701-3.422-10.263,3.88-11.88,10.333
			c-0.57,0.4-0.699,1.114-0.39,1.704c-0.4,1.946-0.629,3.717-0.702,4.934c-0.98,16.37,3.286,34.622,7.602,50.321
			c0.5,1.819,3.167,1.4,3.225-0.436c0.001-0.047-0.003-0.094-0.001-0.141c0.186,0.363,0.449,0.702,0.859,0.957
			c3.213,2,7.067,1.157,10.559,0.607c1.187-0.187,2.029-1.537,2.022-2.656C80.209,73.086,79.895,60.692,78.659,48.317z M71.1,34.542
			c-1.405,0.069-2.849,0.494-4.164,0.751c-1.354,0.265-2.709,0.524-4.068,0.76c-0.452,0.079-0.904,0.156-1.355,0.235
			c0.07-1.131,0.26-2.248,0.409-3.37c3.016,0.228,6.01,0.552,9.034,1.083c0.002,0,0.004,0,0.006,0
			C71.004,34.183,71.054,34.361,71.1,34.542z M69.979,30.62c-2.499-0.548-5.032-0.749-7.585-0.763
			C64.125,22.785,68.072,25.832,69.979,30.62z M61.414,39.192c0.518-0.016,1.029-0.064,1.45-0.096
			c2.78-0.212,6.515-0.424,9.062-1.105c0.326,1.649,0.619,3.311,0.851,4.99c-1.634-0.134-3.502,0.228-4.981,0.287
			c-2.098,0.083-4.199,0.109-6.3,0.148C61.421,42.008,61.402,40.6,61.414,39.192z M61.702,46.267
			c2.031,0.047,4.062,0.095,6.094,0.142c1.637,0.038,3.682,0.451,5.418,0.195c0.05,0.471,0.112,0.94,0.157,1.412
			c-2.036-0.155-4.135,0.102-6.161,0.178c-1.718,0.065-3.549,0.025-5.339,0.136C61.8,47.646,61.759,46.955,61.702,46.267z
			 M63.162,57.903c-0.376-2.246-0.714-4.474-0.984-6.677c1.692,0.087,3.413,0.056,5.032,0.117c2.129,0.081,4.339,0.35,6.473,0.141
			c0.13,1.815,0.245,3.631,0.333,5.439c-1.955-0.45-3.896-0.009-5.859,0.263C66.489,57.417,64.818,57.626,63.162,57.903z
			 M63.73,61.158c1.473-0.032,2.96-0.216,4.4-0.321c2.05-0.149,4.126-0.149,6.019-0.979c0.066,1.561,0.129,3.115,0.195,4.652
			c-0.597-0.221-1.326-0.089-1.762,0.554c0.417-0.615,1.05-0.629-0.075-0.433c-0.4,0.07-0.784,0.176-1.177,0.279
			c-1.131,0.297-2.365,0.339-3.525,0.447c-1.095,0.102-2.194,0.161-3.293,0.21C64.247,64.091,63.99,62.625,63.73,61.158z
			 M65.02,68.443c1.74,0.023,3.48,0.022,5.217-0.038c1.153-0.04,3.091-0.098,4.197-0.909c0.014,0.643,0.032,1.286,0.051,1.929
			c-0.056,0.018-0.112-0.004-0.168,0.02c-1.475,0.649-2.699,1.42-4.338,1.635c-1.525,0.201-3.058-0.004-4.553-0.338
			C65.3,69.975,65.151,69.211,65.02,68.443z M65.881,73.992c2.869,0.609,6.357,0.712,8.703-0.781
			c0.024,1.212,0.075,2.423,0.095,3.635c-0.112,0.022-0.23-0.011-0.337,0.039c-2.425,1.135-5.186,1.771-7.88,1.57
			C66.318,76.971,66.089,75.48,65.881,73.992z M68.9,83.142c-1.008,0.039-1.72,0.629-2.075,1.379
			c-0.01-1.127-0.074-2.261-0.144-3.396c1.544,0.12,3.104,0.043,4.663-0.14c1.181-0.139,2.382-0.352,3.407-0.875
			C74.816,85.892,74.489,82.922,68.9,83.142z"/>
		<path d="M138.974,36.396c-0.575-0.542-1.229-0.882-1.909-1.166c-1.065-3.826-2.964-7.011-6.013-9.016
			c-18.411-12.11-19.846,50.229-19.305,58.067c0.093,1.351,1.386,1.699,2.262,1.203c3.682,1.998,7.995-0.612,11.951-5.684
			c0.885,0.058,1.748,0.037,2.504-0.24c1.46-0.535,1.377-2.323,0-2.884c-0.083-0.034-0.179-0.042-0.264-0.072
			c1.146-1.803,2.238-3.8,3.254-5.925c0.144-0.132,0.312-0.244,0.397-0.418c0.157-0.325,0.16-0.579,0.167-0.836
			c1.041-2.295,1.973-4.731,2.795-7.225c0.8-0.455,1.012-1.392,0.669-2.099c2.151-7.247,3.132-14.828,2.295-21.207
			c0.182-0.023,0.361,0.018,0.543-0.026C139.392,38.615,139.769,37.146,138.974,36.396z M115.071,80.656
			c0.092-1.272,0.182-2.587,0.271-3.893c1.632,0.695,3.297,1.305,5.01,1.799C118.79,79.771,117.043,80.55,115.071,80.656z
			 M123.008,75.889c-0.335-0.033-0.676-0.058-0.993-0.115c-2.211-0.394-4.37-1.066-6.47-1.874c0.089-1.266,0.188-2.55,0.286-3.833
			c0.237,0.037,0.493,0.092,0.697,0.12c1.889,0.258,3.781,0.444,5.68,0.609c0.741,0.065,2.138,0.332,3.648,0.516
			C125.014,72.975,124.073,74.541,123.008,75.889z M127.593,67.404c-1.463-0.057-2.859,0.021-3.429-0.003
			c-2.028-0.081-4.054-0.201-6.082-0.277c-0.33-0.012-0.659-0.032-0.989-0.048c-0.051-0.007-0.067-0.052-0.121-0.054
			c-0.239-0.007-0.553-0.032-0.884-0.052c0.258-2.981,0.565-5.982,0.961-8.96c0.112,0.135,0.257,0.26,0.449,0.361
			c3.278,1.718,7.54,3.914,11.668,4.461C128.701,64.337,128.195,65.872,127.593,67.404z M131.149,55.337
			c-0.247,1.114-0.573,2.446-0.939,3.85c-3.91-0.368-7.435-1.452-11.299-3.23c-0.607-0.28-1.188-0.124-1.588,0.223
			c0.164-1.12,0.381-2.219,0.575-3.327c0.105,0.017,0.189,0.064,0.307,0.066c2.261,0.033,4.521,0.078,6.778,0.221
			c2.135,0.136,4.345,0.875,6.478,0.765C131.357,54.387,131.252,54.872,131.149,55.337z M132.142,50.545
			c-3.638-2.22-9.439-1.573-13.521-1.475c0.283-1.319,0.597-2.622,0.938-3.91c3.095,0.162,6.202,0.48,9.26,0.928
			c1.126,0.165,2.576,0.539,3.908,0.532C132.573,47.94,132.38,49.255,132.142,50.545z M128.439,42.68
			c-2.677-0.152-5.341-0.368-8.017-0.458c0.952-3.066,2.087-6.014,3.52-8.752c2.23,1.152,4.458,2.307,6.751,3.336
			c0.586,0.263,1.185,0.559,1.791,0.846c0.355,1.688,0.507,3.44,0.48,5.228C131.451,42.608,129.683,42.75,128.439,42.68z"/>
		<g>
			<path d="M113.102,141.906c-3.233,4.462-5.526,10.909-10.9,5.031c-3.171-3.469-5.266-8.48-6.306-13.309
				c0.228-0.114,0.47-0.174,0.678-0.366c0.589-0.546,0.78-1.259,0.846-2.027c0,0,0.001,0.005,0.002,0.006
				c-0.021,0.597-0.153,0.969-0.245,1.157c0.031-0.053,0.039-0.08,0.109-0.173c0.287-0.384,0.437-0.858,0.532-1.322
				c0.199-0.973,0.414-1.933,0.672-2.893c0.26-0.965,0.558-1.919,0.867-2.868c0.257-0.788,0.676-1.9,0.808-2.179
				c1.066-2.249-0.188-5.084-2.914-5.077l-9.86,0.024c-2.698,0.007-3.964,2.801-2.893,5.042c0.142,0.299,0.286,0.598,0.431,0.896
				l0.521,0.674c0.829,0.628,0.9,0.692,0.214,0.192c0.495,0.93,0.902,1.913,1.37,2.856c0.859,1.73,2.005,3.377,3.402,4.727
				c-0.125,3.605-0.563,7.128-3.509,9.701c-2.148,1.876-5.756,1.959-8.197,1.474c-3.037-0.604-5.448-1.981-6.551-4.153
				c-0.212-0.418-0.223-1.317,0.229-2.583c0.627-1.753,2.716-3.728,3.88-5.41c1.368-1.978-0.912-5.064-3.212-4.18
				c-5.538,2.13-9.798,8.013-8.167,14.076c1.362,5.064,6.617,8.216,11.421,9.293c5.319,1.192,10.945,0.243,15.093-3.4
				c1.048-0.922,1.821-2.016,2.449-3.187c1.376,3.773,3.449,7.225,6.421,9.719c7.639,6.409,16.41-1.56,18.395-9.388
				C119.581,140.731,115.073,139.185,113.102,141.906z"/>
			<path d="M97.176,132.399C97.088,132.55,97.098,132.562,97.176,132.399L97.176,132.399z"/>
		</g>
		<path d="M124.474,104.462c-3.155-0.815-6.79,0.176-8.946,2.652c-2.991,3.436-2.979,8.13-2.312,12.378
			c0.479,3.054,4.991,2.098,5.142-0.696c0.111-2.101,0.315-4.835,1.784-6.486c0.907-1.021,1.478-1,2.753-0.655
			c1.194,0.323,2.479,1.546,3.326,2.979c1.09,1.848,1.215,4.153,0.822,6.22c-0.901,4.756,6.392,6.774,7.27,2.004
			C135.699,115.319,132.569,106.554,124.474,104.462z"/>
		<path d="M65.828,98.986c-8.356,2.212-8.126,12.22-4.774,18.329c1.111,2.026,3.991,0.588,3.565-1.503
			c-0.498-2.442-0.698-5.022,0.105-7.417c0.502-1.495,1.646-2.355,2.583-2.666c1.071-0.354,2.104-0.188,2.94,0.492
			c1.701,1.382,1.972,3.408,2.567,5.48c1.104,3.84,6.963,3.093,6.96-0.942C79.771,103.502,73.184,97.041,65.828,98.986z"/>
	</g>
</g>
	</g>


	<g id="r4">
	<g>
	<path d="M336.215,246.631c-0.018-0.088-0.045-0.172-0.066-0.259c-0.02-0.086-0.033-0.172-0.056-0.258
		c-1.134-4.179-2.126-8.254-3.004-12.244C341.196,218.961,376,146.853,376,8c0-0.052-0.007-0.103-0.008-0.155
		c-0.003-0.166-0.012-0.332-0.025-0.498c-0.009-0.107-0.019-0.213-0.032-0.319c-0.018-0.147-0.041-0.294-0.067-0.44
		c-0.022-0.126-0.047-0.25-0.075-0.374c-0.028-0.121-0.059-0.241-0.093-0.361c-0.041-0.146-0.085-0.291-0.134-0.434
		c-0.034-0.098-0.07-0.196-0.107-0.294c-0.061-0.158-0.126-0.313-0.197-0.465c-0.021-0.046-0.037-0.094-0.059-0.14
		c-0.021-0.044-0.048-0.084-0.07-0.127c-0.074-0.146-0.152-0.288-0.234-0.428c-0.057-0.098-0.115-0.194-0.175-0.289
		c-0.075-0.116-0.153-0.228-0.233-0.339c-0.079-0.11-0.158-0.218-0.241-0.323c-0.071-0.089-0.145-0.174-0.22-0.26
		c-0.099-0.114-0.198-0.226-0.303-0.333c-0.072-0.074-0.148-0.145-0.223-0.217c-0.111-0.105-0.223-0.21-0.34-0.309
		c-0.083-0.071-0.17-0.137-0.257-0.204c-0.113-0.088-0.226-0.175-0.343-0.256c-0.104-0.073-0.212-0.139-0.319-0.207
		c-0.105-0.066-0.21-0.132-0.318-0.193c-0.126-0.072-0.257-0.136-0.387-0.201c-0.096-0.047-0.191-0.096-0.289-0.139
		c-0.141-0.063-0.286-0.119-0.432-0.174c-0.095-0.036-0.19-0.073-0.286-0.105c-0.143-0.048-0.288-0.089-0.435-0.129
		c-0.109-0.03-0.218-0.059-0.328-0.084c-0.131-0.029-0.263-0.054-0.396-0.077c-0.135-0.024-0.27-0.045-0.406-0.062
		c-0.112-0.013-0.224-0.023-0.336-0.032c-0.162-0.013-0.324-0.022-0.488-0.025C368.096,0.006,368.049,0,368,0
		c-0.051,0-0.1,0.007-0.151,0.008c-0.169,0.003-0.337,0.012-0.506,0.026c-0.104,0.009-0.208,0.019-0.31,0.031
		c-0.15,0.019-0.3,0.042-0.45,0.069c-0.122,0.022-0.244,0.046-0.365,0.073c-0.124,0.028-0.247,0.061-0.371,0.095
		c-0.144,0.04-0.286,0.083-0.426,0.131c-0.1,0.034-0.2,0.071-0.3,0.11c-0.157,0.061-0.31,0.125-0.462,0.195
		c-0.047,0.021-0.094,0.037-0.141,0.059c-0.091,0.044-0.181,0.095-0.272,0.139c-0.027,0.014-0.054,0.027-0.081,0.042
		c-33.978,16.636-63.074,62.556-81.523,98.222c-10.578,20.449-20.23,42.862-26.645,61.041
		c-6.414-18.179-16.067-40.592-26.645-61.041c-18.449-35.665-47.545-81.586-81.522-98.222c-0.027-0.015-0.054-0.027-0.081-0.042
		c-0.091-0.044-0.181-0.095-0.272-0.139c-0.046-0.022-0.093-0.038-0.14-0.059c-0.153-0.071-0.309-0.136-0.467-0.197
		c-0.097-0.037-0.193-0.073-0.291-0.106c-0.144-0.049-0.29-0.094-0.438-0.135c-0.119-0.033-0.238-0.064-0.357-0.092
		c-0.125-0.028-0.251-0.053-0.378-0.076c-0.146-0.026-0.291-0.049-0.438-0.067c-0.106-0.013-0.214-0.023-0.321-0.032
		c-0.166-0.014-0.331-0.022-0.496-0.025C144.103,0.007,144.052,0,144,0c-0.05,0-0.098,0.007-0.148,0.007
		c-0.161,0.003-0.322,0.012-0.482,0.024c-0.114,0.009-0.227,0.019-0.34,0.033c-0.136,0.017-0.271,0.038-0.406,0.062
		c-0.133,0.023-0.265,0.047-0.395,0.077c-0.111,0.025-0.221,0.055-0.331,0.085c-0.145,0.04-0.289,0.08-0.431,0.127
		c-0.099,0.033-0.195,0.07-0.292,0.107c-0.144,0.054-0.286,0.109-0.426,0.171c-0.1,0.045-0.198,0.094-0.296,0.143
		c-0.128,0.063-0.255,0.127-0.379,0.197c-0.111,0.062-0.218,0.13-0.326,0.198c-0.105,0.066-0.21,0.131-0.311,0.202
		c-0.12,0.083-0.235,0.172-0.35,0.262c-0.084,0.065-0.168,0.13-0.249,0.198c-0.119,0.1-0.233,0.207-0.346,0.314
		c-0.073,0.07-0.147,0.139-0.218,0.211c-0.106,0.108-0.206,0.222-0.306,0.337c-0.074,0.085-0.147,0.169-0.217,0.257
		c-0.084,0.105-0.164,0.214-0.243,0.325c-0.08,0.111-0.157,0.223-0.232,0.337c-0.061,0.095-0.119,0.192-0.176,0.291
		c-0.082,0.14-0.16,0.282-0.234,0.427c-0.022,0.043-0.048,0.083-0.07,0.127c-0.022,0.046-0.038,0.094-0.059,0.14
		c-0.07,0.153-0.136,0.308-0.197,0.465c-0.038,0.098-0.074,0.195-0.107,0.294c-0.049,0.143-0.093,0.288-0.134,0.434
		c-0.034,0.12-0.065,0.24-0.093,0.361c-0.028,0.124-0.053,0.249-0.075,0.374c-0.026,0.147-0.049,0.293-0.067,0.44
		c-0.013,0.106-0.023,0.212-0.032,0.319c-0.014,0.166-0.022,0.332-0.025,0.498C136.007,7.897,136,7.948,136,8
		c0,138.853,34.804,210.961,42.91,225.87c-0.878,3.99-1.87,8.064-3.004,12.244c-0.023,0.086-0.036,0.172-0.056,0.259
		c-0.021,0.087-0.048,0.17-0.066,0.259c-0.667,3.314-3.545,10.153-6.878,18.073C157.406,292.03,136,342.896,136,408
		c0,31.862,12.378,58.638,35.796,77.435C193.139,502.565,223.043,512,256,512s62.861-9.435,84.204-26.565
		C363.622,466.638,376,439.862,376,408c0-65.104-21.406-115.97-32.907-143.296C339.76,256.784,336.882,249.945,336.215,246.631z
		 M338.888,174.688c-3.534,12.151-7.083,22.21-10.235,30.215c-3.934-47.467,10.589-81.07,24.747-113.781
		c0.86-1.988,1.716-3.967,2.566-5.941C351.764,123.912,344.96,153.813,338.888,174.688z M156.011,85.126
		c0.857,1.993,1.721,3.99,2.589,5.996c14.155,32.702,28.673,66.296,24.751,113.742C174.41,182.081,162.228,142.507,156.011,85.126z
		 M256,488.684c2.609,2.61,5.727,4.977,9.164,7.024c-3.021,0.18-6.072,0.292-9.164,0.292s-6.144-0.111-9.164-0.292
		C250.273,493.661,253.391,491.294,256,488.684z M330.188,472.957c-1.043,0.837-2.119,1.646-3.212,2.441
		c0.68-3.511,1.023-7.313,1.023-11.398c0-4.418-3.582-8-8-8s-8,3.582-8,8c0,8.764-1.969,15.181-5.852,19.074
		c-3.102,3.109-7.526,4.686-13.152,4.686C278.019,487.76,264,476.923,264,472v-11.719l20.438-13.625
		c3.676-2.451,4.67-7.417,2.219-11.094c-2.451-3.677-7.417-4.669-11.094-2.219L256,446.385l-19.563-13.042
		c-3.675-2.452-8.643-1.458-11.094,2.219c-2.451,3.676-1.458,8.643,2.219,11.094L248,460.281V472c0,1.647-2.199,5.507-8.259,9.389
		c-6.228,3.989-13.98,6.371-20.738,6.371c-5.625,0-10.05-1.577-13.152-4.686C201.969,479.181,200,472.764,200,464
		c0-4.418-3.582-8-8-8s-8,3.582-8,8c0,4.086,0.343,7.887,1.023,11.398c-1.092-0.795-2.168-1.604-3.212-2.441
		C162.309,457.303,152,434.841,152,408c0-61.875,20.591-110.804,31.654-137.09c3.881-9.221,6.703-15.935,7.745-20.797
		c20.56-75.989,0.015-123.461-18.115-165.347c-8.915-20.597-17.426-40.265-20.277-61.764c20.182,15.291,41.813,44.255,62.138,83.548
		c17.625,34.072,28.378,64.392,31.724,78.523c-6.594,1.48-13.152,4.565-19.598,9.257c-3.572,2.601-4.359,7.604-1.759,11.176
		c2.601,3.572,7.604,4.36,11.176,1.759C243.311,202.445,249.809,200,256,200s12.689,2.445,19.313,7.267
		c1.421,1.035,3.069,1.533,4.702,1.533c2.471,0,4.908-1.142,6.474-3.292c2.6-3.572,1.813-8.576-1.759-11.176
		c-6.446-4.692-13.005-7.777-19.598-9.257c3.346-14.132,14.1-44.451,31.724-78.523c20.325-39.293,41.956-68.257,62.138-83.548
		c-2.851,21.499-11.362,41.167-20.277,61.764c-18.13,41.886-38.675,89.358-18.115,165.347c1.041,4.862,3.864,11.575,7.745,20.797
		C339.409,297.196,360,346.125,360,408C360,434.841,349.691,457.303,330.188,472.957z"/>
		<path d="M188,304c-7.402,0-12,7.664-12,20s4.598,20,12,20s12-7.664,12-20S195.402,304,188,304z"/>
		<path d="M312,324c0,12.336,4.598,20,12,20s12-7.664,12-20s-4.598-20-12-20S312,311.664,312,324z"/>
</g>
	</g>

	<g id="r5">
	<style type="text/css">
	.st0{fill:#000000;}
</style>
		<g>
	<path class="st0" d="M384.186,264.542c-1.351-3.84-2.701-7.579-4.086-11.369c-4.541-12.467-9.233-25.355-13.876-44.718
		c-3.95-16.56-9.942-31.845-17.623-45.173c9.403-10.322,17.134-20.13,23.094-29.289c23.818-36.666,23.616-86.877,9.774-112.394
		C374.024,7.875,361.954,0,348.364,0c-5.806,0-14.619,1.527-23.633,8.803c-23.92,19.321-47.722,61.034-65.566,97.918
		c-1.047-0.034-2.11-0.05-3.156-0.05c-1.064,0-2.111,0.016-3.174,0.05c-17.826-36.884-41.646-78.598-65.549-97.918
		C178.272,1.527,169.46,0,163.636,0c-13.572,0-25.642,7.875-33.104,21.599c-13.843,25.508-14.045,75.728,9.774,112.385
		c5.958,9.167,13.69,18.975,23.092,29.297c-7.68,13.328-13.656,28.613-17.623,45.182c-4.642,19.354-9.335,32.243-13.876,44.71
		c-1.367,3.79-2.735,7.529-4.068,11.369c-18.569,30.808-42,91.334-36.193,130.498C99.556,448.392,134.5,512,256.009,512
		s156.436-63.608,164.353-116.96C426.169,355.876,402.738,295.35,384.186,264.542z M394.72,391.233
		c-10.483,70.706-64.586,94.838-138.711,94.838s-128.228-24.131-138.711-94.838c-4.474-30.175,15.666-86.211,34.116-115.542
		c6.162-18.08,12.863-33.17,19.582-61.193c4.878-20.384,13.436-39.367,25.811-53.96c-11.698-11.462-25.322-26.174-34.758-40.683
		c-23.768-36.573-16.138-93.926,1.587-93.926c2.296,0,4.761,0.953,7.36,3.047c25.051,20.249,52.297,74.893,66.392,105.852
		c5.841-1.41,12.019-2.228,18.62-2.228c6.6,0,12.779,0.818,18.62,2.228c14.079-30.96,41.324-85.604,66.392-105.852
		c2.584-2.094,5.048-3.047,7.343-3.047c17.742,0,25.355,57.353,1.604,93.926c-9.437,14.509-23.06,29.221-34.776,40.683
		c12.391,14.594,20.95,33.576,25.828,53.96c6.719,28.022,13.421,43.113,19.583,61.193
		C379.054,305.022,399.193,361.058,394.72,391.233z"/>
			<path class="st0" d="M204.572,202.538c-7.546,0-13.674,6.119-13.674,13.665c0,7.521,6.128,13.657,13.674,13.657
		c7.546,0,13.657-6.136,13.657-13.657C218.229,208.657,212.118,202.538,204.572,202.538z"/>
			<path class="st0" d="M307.445,202.538c-7.563,0-13.674,6.119-13.674,13.665c0,7.521,6.111,13.657,13.674,13.657
		c7.529,0,13.656-6.136,13.656-13.657C321.101,208.657,314.974,202.538,307.445,202.538z"/>
			<path class="st0" d="M256.009,235.886c-19.464,0-36.497,2.405-29.204,14.585c6.06,10.078,15.428,16.746,24.022,18.763v9.917
		l-18.366,13.733c-2.296,1.713-2.752,4.963-1.047,7.258c1.722,2.296,4.963,2.76,7.258,1.046l17.337-12.964l17.32,12.964
		c2.279,1.714,5.537,1.25,7.258-1.046c1.706-2.296,1.25-5.546-1.046-7.258l-18.349-13.733v-9.926
		c8.576-2.009,17.961-8.677,24.004-18.754C292.488,238.292,275.456,235.886,256.009,235.886z"/>
</g>
	</g>

	<g id="r6">
		<g id="a"/>

		<g id="b"/>

		<g id="c"/>

		<g id="d"/>

		<g id="e"/>

		<g id="f"/>

		<g id="g"/>

		<g id="h"/>

		<g id="i"/>

		<g id="j"/>

		<g id="k"/>

		<g id="l"/>

		<g id="m"/>

		<g id="n"/>

		<g id="o">

<path d="M12.04,32.18l-3.36,7.64c-.37,.85-.37,1.82,.02,2.66l7.33,16.01c.42,.91,1.34,1.5,2.34,1.5h17.6c.57,0,1.09-.34,1.31-.87,.22-.53,.11-1.13-.28-1.55l-3.68-3.85,6.6-6.31,3.89,1.2c.93,.29,1.91-.24,2.19-1.17,.05-.16,.07-.33,.07-.49l.11-13.94,6.07-2.74c.83-.38,1.48-1.08,1.79-1.94l1.42-3.93c.37-1.02-.12-2.17-1.11-2.62l-20.4-9.18-6.06-7.94c-.27-.36-.59-.58-.93-.65h0c-.35-.07-.71,.02-.98,.25-.33,.28-.48,.7-.46,1.25l.75,20.25-12.34,4.6c-.85,.32-1.55,.98-1.92,1.81Zm22.6,25.82h-11.61l8.61-3.14,3,3.14Zm9.51-18.88l-4.51-3.14,4.54-2.05-.04,5.2Zm-.59,2.03l-4.59,4.42h0l-4.91,4.7,4.11-12.88,5.39,3.76Zm-1.98,4.69l2.54-2.45-.02,3.22-2.52-.77Zm12.01-22.1l-1.42,3.93c-.13,.35-.39,.64-.73,.79l-13.63,6.15-9.28-8.4,5.28-11.47,19.73,8.88s.07,.07,.05,.11Zm-21.43-10.18l-4,8.68-.54-14.64,4.54,5.96Zm-5.06,14.06l9.39,8.49-5.37,16.83-13.17,4.8s-.07-.02-.09-.06l-7.33-16.01c-.15-.33-.15-.7,0-1.03l3.36-7.64c.15-.34,.44-.61,.79-.74l12.44-4.64Z"/>

</g>

		<g id="p"/>

		<g id="q"/>

		<g id="r"/>

		<g id="s"/>

		<g id="t"/>

		<g id="u"/>

		<g id="v"/>

		<g id="w"/>

		<g id="x"/>

		<g id="y"/>

		<g id="a`"/>

		<g id="aa"/>

		<g id="ab"/>

		<g id="ac"/>

		<g id="ad"/>

		<g id="ae"/>

		<g id="af"/>

		<g id="ag"/>

		<g id="ah"/>

		<g id="ai"/>

		<g id="aj"/>

		<g id="ak"/>

		<g id="al"/>

		<g id="am"/>

		<g id="an"/>

		<g id="ao"/>

		<g id="ap"/>

		<g id="aq"/>

		<g id="ar"/>

		<g id="as"/>

		<g id="at"/>

		<g id="au"/>

		<g id="av"/>

		<g id="aw"/>

		<g id="ax"/>
	</g>

	<g id="r7">
	<g>
	<g>
		<path d="M47.995,24.932V5.998c0-3.308-2.691-5.998-6-5.998s-6,2.69-6,5.998v11.139c-4.782-1.409-10.132-1.506-14.989-0.276V6.002
			c0-3.31-2.691-6.002-6-6.002s-6,2.692-6,6.002V23.76c-3.234,3.483-5.011,7.813-5.011,12.235c0,11.024,10.767,19.994,24,19.994
			s24-8.97,24-19.994C51.995,32.029,50.613,28.212,47.995,24.932z M27.995,53.989c-12.131,0-22-8.072-22-17.994
			c0-4.086,1.636-7.938,4.729-11.143c0.181-0.185,0.281-0.435,0.281-0.694V6.002c0-2.207,1.794-4.002,4-4.002s4,1.795,4,4.002
			v12.176c0,0.317,0.15,0.615,0.405,0.804c0.254,0.188,0.581,0.246,0.888,0.152C22.756,18.382,25.345,18,27.995,18
			c3.01,0,5.926,0.489,8.668,1.453c0.308,0.108,0.646,0.06,0.91-0.127c0.265-0.187,0.422-0.492,0.422-0.816V5.998
			c0-2.204,1.794-3.998,4-3.998s4,1.794,4,3.998v19.289c0,0.232,0.081,0.458,0.229,0.638c2.467,2.978,3.771,6.461,3.771,10.07
			C49.995,45.917,40.125,53.989,27.995,53.989z"/>
		<circle cx="19.005" cy="28" r="2"/>
		<circle cx="37.005" cy="28" r="2"/>
		<path d="M37.005,42c0,2.206-1.794,4-4,4s-4-1.794-4-4v-0.069c2.309-0.316,4-1.709,4-3.431c0-1.963-2.196-3.5-5-3.5s-5,1.537-5,3.5
			c0,1.722,1.691,3.115,4,3.431V42c0,2.206-1.794,4-4,4s-4-1.794-4-4v-1h-2v1c0,3.309,2.691,6,6,6c2.086,0,3.924-1.071,5-2.69
			c1.076,1.62,2.914,2.69,5,2.69c3.309,0,6-2.691,6-6v-1h-2V42z M25.005,38.5c0-0.708,1.283-1.5,3-1.5s3,0.792,3,1.5
			s-1.283,1.5-3,1.5S25.005,39.208,25.005,38.5z"/>
	</g>
</g>
	</g>

	<g id="r8">
	  <g>
    <path d="m287.178,207.834c-2.32-2.32-5.55-3.66-8.84-3.66-3.29,0-6.51,1.34-8.83,3.66-2.33,2.33-3.67,5.55-3.67,8.84s1.34,6.51 3.67,8.84c2.32,2.33 5.54,3.66 8.83,3.66 3.29,0 6.52-1.33 8.84-3.66 2.33-2.33 3.66-5.55 3.66-8.84s-1.33-6.51-3.66-8.84z"/>
		  <path d="m187.208,204.174c-3.29,0-6.51,1.34-8.84,3.66-2.33,2.33-3.66,5.55-3.66,8.84s1.33,6.51 3.66,8.84c2.33,2.33 5.55,3.66 8.84,3.66s6.51-1.33 8.84-3.66c2.33-2.33 3.66-5.55 3.66-8.84s-1.33-6.51-3.66-8.84c-2.33-2.32-5.55-3.66-8.84-3.66z"/>
		  <path d="m439.324,246.503c-4.242-4.242-9.412-7.215-15.049-8.749v-46.254c0-105.593-85.907-191.5-191.5-191.5-105.593,0-191.5,85.907-191.5,191.5v46.265c-14.391,3.947-25,17.135-25,32.762v24.435c0,15.603 6.712,30.386 18.02,40.667 16.43,37.633 43.079,69.679 77.23,92.806 35.855,24.281 77.783,37.115 121.25,37.115 86.141,0 163.614-50.67 198.23-129.345 11.366-10.18 18.269-25.002 18.269-40.983v-24.695c0.001-9.075-3.533-17.607-9.95-24.024zm-206.549-221.503c91.809,0 166.5,74.691 166.5,166.5v45.053h-64.591c0.056-1.36 0.091-2.73 0.091-4.113 0-28.062-11.762-54.985-31.948-74.129 6.122-10.153 11.311-22.511 15-35.884 13.767-50.028-7.613-65.589-21.58-70.411-9.504-3.283-18.916-2.707-27.217,1.666-12.479,6.573-21.62,20.943-27.946,43.93-3.048,11.066-4.901,22.334-5.454,32.859-1.905-0.054-3.805-0.054-5.71,0-0.552-10.525-2.405-21.792-5.453-32.856-6.327-22.989-15.468-37.36-27.947-43.933-8.303-4.373-17.714-4.949-27.215-1.667-13.97,4.823-35.35,20.384-21.581,70.418 3.687,13.368 8.876,25.725 14.998,35.877-20.185,19.144-31.947,46.067-31.947,74.129 0,1.383 0.035,2.752 0.091,4.113h-64.591v-45.052c0-91.809 74.692-166.5 166.5-166.5zm-76.879,211.553c-0.074-1.351-0.121-2.719-0.121-4.113 0-24.604 11.342-47.147 31.117-61.848 2.721-2.023 4.503-5.064 4.939-8.426s-0.514-6.757-2.629-9.407c-6.969-8.725-13.303-22.201-17.375-36.965-4.756-17.284-3.908-26.791-2.359-31.722 1.38-4.395 3.847-6.993 7.999-8.426 3.805-1.315 5.954-0.608 7.403,0.155 2.695,1.419 9.601,7.034 15.494,28.449 3.786,13.745 5.384,27.612 4.499,39.045-0.297,3.846 1.197,7.614 4.05,10.21 2.854,2.597 6.746,3.729 10.546,3.071 8.78-1.521 17.852-1.521 26.632,0 3.8,0.657 7.692-0.475 10.546-3.071 2.853-2.596 4.348-6.364 4.05-10.21-0.885-11.434 0.712-25.3 4.499-39.048 5.893-21.413 12.798-27.027 15.494-28.446 1.447-0.763 3.599-1.47 7.405-0.155 4.15,1.433 6.616,4.031 7.997,8.426 1.549,4.932 2.397,14.438-2.356,31.715-4.075,14.772-10.408,28.248-17.377,36.973-2.116,2.649-3.065,6.044-2.629,9.407s2.218,6.403 4.939,8.426c19.776,14.701 31.118,37.244 31.118,61.848 0,1.394-0.047,2.762-0.121,4.113h-153.76zm-114.621,33.972c-7.10543e-15-4.948 4.025-8.974 8.974-8.974h365.052c2.397,0 4.651,0.934 6.346,2.628s2.628,3.948 2.628,6.345v24.695c0,12.613-7.816,23.875-19.468,28.032l-.236,.083c-21.476,7.543-45.244,1.557-60.554-15.254-2.369-2.601-5.724-4.083-9.242-4.083s-6.873,1.482-9.242,4.083c-10.835,11.897-25.666,18.45-41.758,18.45-16.093,0-30.923-6.552-41.759-18.45-2.369-2.601-5.724-4.083-9.242-4.083s-6.873,1.482-9.242,4.083c-10.835,11.897-25.666,18.45-41.758,18.45-16.093,0-30.923-6.552-41.759-18.45-2.369-2.601-5.724-4.083-9.242-4.083-3.518,0-6.873,1.482-9.242,4.083-14.991,16.465-38.359,22.587-59.531,15.604-0.829-0.274-2.718-1.025-6.045-2.979-9.055-5.321-14.68-15.186-14.68-25.744v-24.436zm191.5,170.024c-66.734,0-127.506-34.314-162.165-89.539 21.501,2.412 43.223-3.824 60.168-17.417 14.364,11.512 32.375,17.939 50.997,17.939 0.001,0-0.001,0 0,0 18.622,0 36.636-6.429 51-17.941 14.365,11.514 32.377,17.941 51,17.941 0.001,0-0.001,0 0,0 18.617,0 36.626-6.425 50.989-17.933 14.565,11.714 32.581,17.958 50.986,17.958 3.053,0 6.116-0.187 9.177-0.534-34.673,55.205-95.477,89.526-162.152,89.526z"/>
		  <path d="m79.778,305.004c3.29,0 6.51-1.34 8.84-3.67 2.32-2.32 3.66-5.54 3.66-8.83s-1.34-6.52-3.66-8.84c-2.33-2.33-5.55-3.66-8.84-3.66-3.3,0-6.52,1.33-8.84,3.66-2.33,2.32-3.66,5.55-3.66,8.84s1.33,6.51 3.66,8.83c2.32,2.33 5.55,3.67 8.84,3.67z"/>
		  <path d="m385.778,305.004c3.29,0 6.51-1.34 8.84-3.66 2.32-2.33 3.66-5.55 3.66-8.84 0-3.3-1.34-6.52-3.66-8.84-2.33-2.33-5.55-3.66-8.84-3.66s-6.51,1.33-8.84,3.66c-2.33,2.32-3.66,5.54-3.66,8.84 0,3.29 1.33,6.51 3.66,8.84 2.32,2.32 5.55,3.66 8.84,3.66z"/>
		  <path d="m181.778,305.004c3.29,0 6.51-1.34 8.83-3.66 2.33-2.33 3.67-5.55 3.67-8.84 0-3.3-1.34-6.52-3.67-8.84-2.32-2.33-5.54-3.66-8.83-3.66-3.3,0-6.52,1.33-8.84,3.66-2.33,2.32-3.66,5.54-3.66,8.84 0,3.29 1.33,6.51 3.66,8.84 2.32,2.32 5.55,3.66 8.84,3.66z"/>
		  <path d="m283.778,305.004c3.29,0 6.51-1.34 8.84-3.67 2.32-2.32 3.66-5.54 3.66-8.83s-1.34-6.52-3.66-8.84c-2.33-2.33-5.55-3.66-8.84-3.66s-6.52,1.33-8.84,3.66c-2.33,2.32-3.66,5.55-3.66,8.84s1.33,6.51 3.66,8.83c2.32,2.33 5.55,3.67 8.84,3.67z"/>
  </g>
	</g>

	<g id="r9">
	<g>
	<g>
		<path d="M411.096,232.649c-4.88-3.415-9.948-6.644-15.177-9.695c1.419-2.913,2.858-5.909,4.321-9.013
			c20.84-44.184,40.175-95.811,44.494-114.509c10.07-43.598-17.209-87.265-60.81-97.336C377.904,0.705,371.741,0,365.608,0
			c-37.972,0-70.466,25.868-79.019,62.904c-4.473,19.365-9.766,75.404-10.259,125.147c-6.722-0.436-13.501-0.665-20.329-0.665
			c-6.828,0-13.607,0.23-20.329,0.665c-0.494-49.743-5.788-105.783-10.259-125.147C216.857,25.868,184.363,0,146.391,0
			c-6.134,0-12.296,0.705-18.315,2.095c-43.6,10.071-70.878,53.736-60.81,97.336c4.319,18.698,23.654,70.324,44.494,114.509
			c1.464,3.104,2.903,6.1,4.321,9.013c-5.229,3.051-10.298,6.28-15.177,9.695c-43.9,30.732-68.077,72.297-68.077,117.044
			c0,44.747,24.177,86.314,68.077,117.044C142.603,495.925,197.683,512,256,512s113.397-16.075,155.096-45.263
			c43.9-30.732,68.077-72.297,68.077-117.044C479.173,304.946,454.996,263.38,411.096,232.649z M317.08,177.66
			c1.109-47.609,6.051-92.675,9.042-105.627c4.279-18.521,20.516-31.456,39.485-31.456c3.066,0,6.156,0.356,9.183,1.054
			c21.801,5.037,35.44,26.867,30.404,48.667c-2.99,12.952-18.314,55.621-38.195,98.894c-2.677,5.828-5.261,11.274-7.753,16.375
			c-13.499-5.094-27.692-9.151-42.376-12.137C316.886,188.44,316.952,183.199,317.08,177.66z M106.803,90.298
			c-5.036-21.799,8.605-43.631,30.404-48.667c3.028-0.699,6.119-1.054,9.184-1.054c18.97,0,35.206,12.936,39.484,31.459
			c2.99,12.951,7.933,58.017,9.042,105.627c0.128,5.539,0.195,10.781,0.21,15.77c-14.685,2.985-28.879,7.043-42.376,12.137
			c-2.493-5.105-5.076-10.55-7.753-16.378C125.117,145.92,109.795,103.25,106.803,90.298z M387.825,433.495
			c-34.941,24.458-81.757,37.929-131.826,37.929s-96.885-13.47-131.826-37.929c-32.739-22.918-50.77-52.678-50.77-83.802
			c0-31.124,18.031-60.884,50.77-83.802c34.941-24.458,81.757-37.929,131.826-37.929s96.885,13.47,131.826,37.929
			c32.739,22.918,50.77,52.678,50.77,83.802C438.596,380.816,420.565,410.577,387.825,433.495z"/>
	</g>
</g>
		<g>
	<g>
		<circle cx="168.082" cy="322.64" r="20.288"/>
	</g>
</g>
		<g>
	<g>
		<circle cx="343.915" cy="322.64" r="20.288"/>
	</g>
</g>
		<g>
	<g>
		<path d="M269.524,383.507h-13.526h-13.526c-7.47,0-13.526,6.055-13.526,13.526c0,13.526,27.051,27.051,27.051,27.051
			s27.051-13.526,27.051-27.051C283.05,389.562,276.994,383.507,269.524,383.507z"/>
	</g>
</g>
	</g>

	<g id="r10">
	<g>
	<g>
		<path d="M47.995,24.932V5.998c0-3.308-2.691-5.998-6-5.998s-6,2.69-6,5.998v11.139c-4.782-1.409-10.132-1.506-14.989-0.276V6.002
			c0-3.31-2.691-6.002-6-6.002s-6,2.692-6,6.002V23.76c-3.234,3.483-5.011,7.813-5.011,12.235c0,11.024,10.767,19.994,24,19.994
			s24-8.97,24-19.994C51.995,32.029,50.613,28.212,47.995,24.932z M27.995,53.989c-12.131,0-22-8.072-22-17.994
			c0-4.086,1.636-7.938,4.729-11.143c0.181-0.185,0.281-0.435,0.281-0.694V6.002c0-2.207,1.794-4.002,4-4.002s4,1.795,4,4.002
			v12.176c0,0.317,0.15,0.615,0.405,0.804c0.254,0.188,0.581,0.246,0.888,0.152C22.756,18.382,25.345,18,27.995,18
			c3.01,0,5.926,0.489,8.668,1.453c0.308,0.108,0.646,0.06,0.91-0.127c0.265-0.187,0.422-0.492,0.422-0.816V5.998
			c0-2.204,1.794-3.998,4-3.998s4,1.794,4,3.998v19.289c0,0.232,0.081,0.458,0.229,0.638c2.467,2.978,3.771,6.461,3.771,10.07
			C49.995,45.917,40.125,53.989,27.995,53.989z"/>
		<circle cx="19.005" cy="28" r="2"/>
		<circle cx="37.005" cy="28" r="2"/>
		<path d="M37.005,42c0,2.206-1.794,4-4,4s-4-1.794-4-4v-0.069c2.309-0.316,4-1.709,4-3.431c0-1.963-2.196-3.5-5-3.5s-5,1.537-5,3.5
			c0,1.722,1.691,3.115,4,3.431V42c0,2.206-1.794,4-4,4s-4-1.794-4-4v-1h-2v1c0,3.309,2.691,6,6,6c2.086,0,3.924-1.071,5-2.69
			c1.076,1.62,2.914,2.69,5,2.69c3.309,0,6-2.691,6-6v-1h-2V42z M25.005,38.5c0-0.708,1.283-1.5,3-1.5s3,0.792,3,1.5
			s-1.283,1.5-3,1.5S25.005,39.208,25.005,38.5z"/>
	</g>
</g>
	</g>

	<g id="r11">
	<g>
	<g>
		<g>
			<path d="M475.54,168.848V51.075c0-0.436-0.011-0.871-0.033-1.303c-0.692-22.735-19.39-41.02-42.29-41.02
				c-23.337,0-42.323,18.985-42.323,42.322v74.99c-5.001-0.558-10.08-0.855-15.229-0.855c-5.17,0-10.36,0.297-15.52,0.886v-75.02
				c0-0.436-0.011-0.871-0.033-1.303c-0.693-22.735-19.39-41.02-42.29-41.02c-23.337,0-42.323,18.985-42.323,42.322v117.998
				c-7.414,8.026-13.816,16.868-19.095,26.374h-89.379c-23.081,0-45.066,5.683-64.479,15.82
				c-9.643-10.418-23.222-16.473-37.652-16.473c-28.304,0-51.331,23.027-51.331,51.332c0,17.068,8.262,32.613,21.978,42.128
				c-1.968,5.55-3.602,11.271-4.868,17.146C11.962,320.749,0,344.038,0,370.073v49.546c0,46.114,37.516,83.63,83.63,83.63h348.739
				c11.138,0,20.2-9.062,20.2-20.2c0-21.43-11.824-40.822-29.954-50.953c16.448-16.941,28.616-38.017,34.807-61.448
				c34.232-25.698,54.579-66.252,54.579-109.105C512,225.778,498.149,193.192,475.54,168.848z M450.199,42.299
				c4.839,0,8.776,3.937,8.776,8.776v94.254c0,2.453-1.023,4.711-2.711,6.329c-4.725-3.475-9.681-6.653-14.842-9.507V51.075
				C441.421,46.236,445.359,42.299,450.199,42.299z M433.216,25.317c3.21,0,6.282,0.595,9.119,1.673
				c-10.134,3.317-17.478,12.857-17.478,24.085v83.322c-5.63-2.185-11.439-4.006-17.399-5.435V51.075h-0.001
				C407.458,36.872,419.013,25.317,433.216,25.317z M334.805,42.299c4.839,0,8.776,3.937,8.776,8.776v94.254
				c0,4.839-3.937,8.776-8.777,8.776c-4.839,0-8.776-3.937-8.776-8.776V51.075C326.028,46.236,329.966,42.299,334.805,42.299z
				 M30.128,246.125c0-19.171,15.597-34.768,34.766-34.768c8.588,0,16.738,3.165,23.023,8.722
				c-19.217,13.238-35.041,31.214-45.67,52.426C34.633,265.999,30.128,256.482,30.128,246.125z M195.719,486.685H83.63
				c-36.981,0-67.066-30.085-67.066-67.066v-49.546c0-36.981,30.085-67.066,67.066-67.066c36.979,0,67.065,30.085,67.065,67.066
				v49.546c0,3.92-0.363,7.931-1.079,11.923c-0.432,2.408,0.224,4.884,1.791,6.764c1.567,1.879,3.885,2.971,6.332,2.979
				c22.947,0.082,41.615,18.818,41.615,41.764C199.355,485.054,197.724,486.685,195.719,486.685z M215.574,486.684
				c0.215-1.181,0.346-2.392,0.346-3.634c0-2.931-0.229-5.81-0.649-8.628h17.819c2.098,4.489,4.841,8.619,8.118,12.262H215.574z
				 M353.399,486.685h-75.113c-18.365,0-33.308-14.942-33.308-33.308v-112.71c0-18.366,14.941-33.308,33.308-33.308
				c18.365,0,33.308,14.941,33.308,33.308v92.551c0,4.281,3.263,7.858,7.528,8.248c21.613,1.977,37.911,19.853,37.911,41.583
				C357.033,485.054,355.404,486.685,353.399,486.685z M436.005,483.05c0,2.004-1.631,3.635-3.635,3.635h-59.116
				c0.215-1.182,0.346-2.393,0.346-3.635c0-6.017-0.898-11.821-2.569-17.283c13.98-5.182,26.885-12.543,38.32-21.65
				C425.23,450.28,436.005,465.736,436.005,483.05z M445.3,358.998c-1.619,1.158-2.765,2.861-3.231,4.797
				c-9.693,40.289-39.349,73.05-78.147,86.914c-8.108-12.239-20.747-21.223-35.763-24.565v-85.478
				c0-27.499-22.372-49.872-49.872-49.872c-27.499,0-49.872,22.372-49.872,49.872v112.71c0,1.511,0.08,3.004,0.211,4.481h-18.447
				c-8.114-16.846-24.091-29.243-43.132-32.369c0.141-1.967,0.212-3.926,0.212-5.87v-49.546c0-46.114-37.516-83.63-83.629-83.63
				c-11.376,0-22.225,2.291-32.121,6.424c17.383-47.808,63.254-80.855,115.516-80.855h94.357c3.121,0,5.976-1.754,7.387-4.538
				c5.453-10.757,12.503-20.626,20.955-29.333c1.5-1.545,2.339-3.614,2.339-5.769V51.075c0-14.202,11.555-25.758,25.759-25.758
				c3.21,0,6.282,0.595,9.119,1.673c-10.134,3.316-17.478,12.857-17.478,24.085v94.254c0,13.973,11.368,25.34,25.34,25.34
				c13.973,0,25.341-11.368,25.341-25.34v-2.539c5.151-0.67,10.348-1.015,15.52-1.015c66.042,0,119.771,53.728,119.771,119.769
				C495.436,300.092,476.692,336.523,445.3,358.998z"/>
			<path d="M435.315,243.912h-22.402c-7.556,0-9.29,4.295-3.854,9.543l6.062,5.853c5.435,5.249,14.174,5.093,19.419-0.346
				l4.977-5.16C444.76,248.362,442.87,243.912,435.315,243.912z"/>
			<circle cx="379.978" cy="224.021" r="8.842"/>
			<circle cx="457.892" cy="224.021" r="8.842"/>
		</g>
	</g>
</g>
	</g>

	<g id="r12">
	<g>
	<path style="fill:#AEB1B3;" d="M176.451,279.436c-12.076-4.272-25.343,2.057-29.615,14.141l-26.52,74.986h-19.545   c-13.151,0-23.811,10.662-23.811,23.814c0,13.15,10.66,23.811,23.811,23.811h35.738c12.23,0,20.482-10.104,23.652-21.088   l30.431-86.048C194.866,296.968,188.535,283.708,176.451,279.436z"/>
		<path style="fill:#AEB1B3;" d="M287.529,281.452c-20.651,0-37.392,16.741-37.392,37.393v49.718h-26.516   c-13.15,0-23.813,10.662-23.813,23.814c0,13.15,10.662,23.811,23.813,23.811h77.488c13.151,0,23.813-10.661,23.813-23.811v-73.531   C324.922,298.193,308.181,281.452,287.529,281.452z"/>
		<path style="opacity:0.3;" d="M176.451,279.436c-12.076-4.272-25.343,2.057-29.617,14.141l-20.461,57.859   c9.727,7.228,25.102,16.18,40.78,23.894l23.439-66.277C194.865,296.968,188.535,283.708,176.451,279.436z"/>
		<circle style="fill:#C5C7C7;" cx="347.917" cy="254.9" r="32.467"/>
		<path style="opacity:0.3;" d="M287.529,281.452c-20.651,0-37.392,16.741-37.392,37.393v49.718h-26.516   c-12.049,0-21.98,8.958-23.566,20.571c3.932,1.273,7.547,2.248,10.691,2.837c9.559,2.574,19.444,3.88,29.395,3.88   c33.758,0,64.094-14.913,84.781-38.49v-38.516C324.922,298.193,308.181,281.452,287.529,281.452z"/>
		<path style="fill:#AEB1B3;" d="M240.141,181.881c-12.697,0-42.4,0.071-54.803,0.079c-0.662-0.023-1.32-0.065-1.987-0.074   c-48.256-0.563-87.835,38.102-88.397,86.359c-0.325,27.918,12.494,52.911,32.688,69.145l-0.009,0.025   c11.659,11.658,62.993,39.244,85.677,43.228v-0.002c8.547,2.345,17.541,3.604,26.832,3.604   c55.881,0,101.183-45.302,101.183-101.184C341.323,227.183,296.021,181.881,240.141,181.881z"/>
		<path style="opacity:0.15;" d="M306.252,281.452c-20.652,0-37.394,16.741-37.394,37.393v49.718h-26.516   c-13.151,0-23.811,10.662-23.811,23.814c0,13.15,10.66,23.811,23.811,23.811h77.488c13.152,0,23.813-10.661,23.813-23.811v-73.531   C343.644,298.193,326.902,281.452,306.252,281.452z"/>
		<path style="opacity:0.15;" d="M195.172,279.436c-12.076-4.272-25.342,2.057-29.615,14.141l-26.52,74.986h-19.543   c-13.152,0-23.813,10.662-23.813,23.814c0,13.15,10.66,23.811,23.813,23.811h35.736c12.217,0,22.27-9.203,23.641-21.053   l30.443-86.083C213.587,296.968,207.256,283.708,195.172,279.436z"/>
		<g>
		<g>
			<path style="fill:#C5C7C7;" d="M80.145,158.752c-13.808,0-25-11.193-25-25V25c0-13.807,11.192-25,25-25s25,11.193,25,25v108.752     C105.145,147.559,93.952,158.752,80.145,158.752z"/>
			<path style="fill:#FF8189;" d="M80.145,128.752c-4.143,0-7.5-3.358-7.5-7.5V25c0-4.142,3.357-7.5,7.5-7.5     c4.143,0,7.5,3.358,7.5,7.5v96.252C87.645,125.394,84.287,128.752,80.145,128.752z"/>
		</g>
			<g>
			<path style="fill:#C5C7C7;" d="M179.414,158.752c-13.808,0-25-11.193-25-25V25c0-13.807,11.192-25,25-25s25,11.193,25,25v108.752     C204.414,147.559,193.222,158.752,179.414,158.752z"/>
				<path style="fill:#FF8189;" d="M179.414,128.752c-4.143,0-7.5-3.358-7.5-7.5V25c0-4.142,3.357-7.5,7.5-7.5     c4.143,0,7.5,3.358,7.5,7.5v96.252C186.914,125.394,183.557,128.752,179.414,128.752z"/>
		</g>
			<circle style="fill:#C5C7C7;" cx="129.78" cy="187.477" r="93.976"/>
			<circle style="fill:#333E48;" cx="76.386" cy="173.93" r="8.433"/>
			<circle style="fill:#333E48;" cx="183.173" cy="173.93" r="8.433"/>
			<path style="fill:#FF8189;" d="M143.293,192.186c0-4.898-6.051-6.094-13.514-6.094c-7.463,0-13.513,1.195-13.513,6.094    c0,4.898,6.05,8.87,13.513,8.87C137.242,201.056,143.293,197.084,143.293,192.186z"/>
	</g>
		<path style="fill:#C5C7C7;" d="M316.537,281.452c-20.65,0-37.392,16.741-37.392,37.393v49.718H252.63   c-13.151,0-23.813,10.662-23.813,23.814c0,13.15,10.661,23.811,23.813,23.811h77.487c13.152,0,23.814-10.661,23.814-23.811v-73.531   C353.931,298.193,337.189,281.452,316.537,281.452z"/>
		<path style="fill:#C5C7C7;" d="M205.459,279.436c-12.076-4.272-25.343,2.057-29.615,14.141l-26.52,74.986h-19.545   c-13.151,0-23.812,10.662-23.812,23.814c0,13.15,10.66,23.811,23.812,23.811h35.738c12.23,0,20.482-10.104,23.652-21.088   l30.431-86.048C223.874,296.968,217.543,283.708,205.459,279.436z"/>
</g>
	</g>

	<g id="r13">
	 <g>
    <path d="m287.178,207.834c-2.32-2.32-5.55-3.66-8.84-3.66-3.29,0-6.51,1.34-8.83,3.66-2.33,2.33-3.67,5.55-3.67,8.84s1.34,6.51 3.67,8.84c2.32,2.33 5.54,3.66 8.83,3.66 3.29,0 6.52-1.33 8.84-3.66 2.33-2.33 3.66-5.55 3.66-8.84s-1.33-6.51-3.66-8.84z"/>
		 <path d="m187.208,204.174c-3.29,0-6.51,1.34-8.84,3.66-2.33,2.33-3.66,5.55-3.66,8.84s1.33,6.51 3.66,8.84c2.33,2.33 5.55,3.66 8.84,3.66s6.51-1.33 8.84-3.66c2.33-2.33 3.66-5.55 3.66-8.84s-1.33-6.51-3.66-8.84c-2.33-2.32-5.55-3.66-8.84-3.66z"/>
		 <path d="m439.324,246.503c-4.242-4.242-9.412-7.215-15.049-8.749v-46.254c0-105.593-85.907-191.5-191.5-191.5-105.593,0-191.5,85.907-191.5,191.5v46.265c-14.391,3.947-25,17.135-25,32.762v24.435c0,15.603 6.712,30.386 18.02,40.667 16.43,37.633 43.079,69.679 77.23,92.806 35.855,24.281 77.783,37.115 121.25,37.115 86.141,0 163.614-50.67 198.23-129.345 11.366-10.18 18.269-25.002 18.269-40.983v-24.695c0.001-9.075-3.533-17.607-9.95-24.024zm-206.549-221.503c91.809,0 166.5,74.691 166.5,166.5v45.053h-64.591c0.056-1.36 0.091-2.73 0.091-4.113 0-28.062-11.762-54.985-31.948-74.129 6.122-10.153 11.311-22.511 15-35.884 13.767-50.028-7.613-65.589-21.58-70.411-9.504-3.283-18.916-2.707-27.217,1.666-12.479,6.573-21.62,20.943-27.946,43.93-3.048,11.066-4.901,22.334-5.454,32.859-1.905-0.054-3.805-0.054-5.71,0-0.552-10.525-2.405-21.792-5.453-32.856-6.327-22.989-15.468-37.36-27.947-43.933-8.303-4.373-17.714-4.949-27.215-1.667-13.97,4.823-35.35,20.384-21.581,70.418 3.687,13.368 8.876,25.725 14.998,35.877-20.185,19.144-31.947,46.067-31.947,74.129 0,1.383 0.035,2.752 0.091,4.113h-64.591v-45.052c0-91.809 74.692-166.5 166.5-166.5zm-76.879,211.553c-0.074-1.351-0.121-2.719-0.121-4.113 0-24.604 11.342-47.147 31.117-61.848 2.721-2.023 4.503-5.064 4.939-8.426s-0.514-6.757-2.629-9.407c-6.969-8.725-13.303-22.201-17.375-36.965-4.756-17.284-3.908-26.791-2.359-31.722 1.38-4.395 3.847-6.993 7.999-8.426 3.805-1.315 5.954-0.608 7.403,0.155 2.695,1.419 9.601,7.034 15.494,28.449 3.786,13.745 5.384,27.612 4.499,39.045-0.297,3.846 1.197,7.614 4.05,10.21 2.854,2.597 6.746,3.729 10.546,3.071 8.78-1.521 17.852-1.521 26.632,0 3.8,0.657 7.692-0.475 10.546-3.071 2.853-2.596 4.348-6.364 4.05-10.21-0.885-11.434 0.712-25.3 4.499-39.048 5.893-21.413 12.798-27.027 15.494-28.446 1.447-0.763 3.599-1.47 7.405-0.155 4.15,1.433 6.616,4.031 7.997,8.426 1.549,4.932 2.397,14.438-2.356,31.715-4.075,14.772-10.408,28.248-17.377,36.973-2.116,2.649-3.065,6.044-2.629,9.407s2.218,6.403 4.939,8.426c19.776,14.701 31.118,37.244 31.118,61.848 0,1.394-0.047,2.762-0.121,4.113h-153.76zm-114.621,33.972c-7.10543e-15-4.948 4.025-8.974 8.974-8.974h365.052c2.397,0 4.651,0.934 6.346,2.628s2.628,3.948 2.628,6.345v24.695c0,12.613-7.816,23.875-19.468,28.032l-.236,.083c-21.476,7.543-45.244,1.557-60.554-15.254-2.369-2.601-5.724-4.083-9.242-4.083s-6.873,1.482-9.242,4.083c-10.835,11.897-25.666,18.45-41.758,18.45-16.093,0-30.923-6.552-41.759-18.45-2.369-2.601-5.724-4.083-9.242-4.083s-6.873,1.482-9.242,4.083c-10.835,11.897-25.666,18.45-41.758,18.45-16.093,0-30.923-6.552-41.759-18.45-2.369-2.601-5.724-4.083-9.242-4.083-3.518,0-6.873,1.482-9.242,4.083-14.991,16.465-38.359,22.587-59.531,15.604-0.829-0.274-2.718-1.025-6.045-2.979-9.055-5.321-14.68-15.186-14.68-25.744v-24.436zm191.5,170.024c-66.734,0-127.506-34.314-162.165-89.539 21.501,2.412 43.223-3.824 60.168-17.417 14.364,11.512 32.375,17.939 50.997,17.939 0.001,0-0.001,0 0,0 18.622,0 36.636-6.429 51-17.941 14.365,11.514 32.377,17.941 51,17.941 0.001,0-0.001,0 0,0 18.617,0 36.626-6.425 50.989-17.933 14.565,11.714 32.581,17.958 50.986,17.958 3.053,0 6.116-0.187 9.177-0.534-34.673,55.205-95.477,89.526-162.152,89.526z"/>
		 <path d="m79.778,305.004c3.29,0 6.51-1.34 8.84-3.67 2.32-2.32 3.66-5.54 3.66-8.83s-1.34-6.52-3.66-8.84c-2.33-2.33-5.55-3.66-8.84-3.66-3.3,0-6.52,1.33-8.84,3.66-2.33,2.32-3.66,5.55-3.66,8.84s1.33,6.51 3.66,8.83c2.32,2.33 5.55,3.67 8.84,3.67z"/>
		 <path d="m385.778,305.004c3.29,0 6.51-1.34 8.84-3.66 2.32-2.33 3.66-5.55 3.66-8.84 0-3.3-1.34-6.52-3.66-8.84-2.33-2.33-5.55-3.66-8.84-3.66s-6.51,1.33-8.84,3.66c-2.33,2.32-3.66,5.54-3.66,8.84 0,3.29 1.33,6.51 3.66,8.84 2.32,2.32 5.55,3.66 8.84,3.66z"/>
		 <path d="m181.778,305.004c3.29,0 6.51-1.34 8.83-3.66 2.33-2.33 3.67-5.55 3.67-8.84 0-3.3-1.34-6.52-3.67-8.84-2.32-2.33-5.54-3.66-8.83-3.66-3.3,0-6.52,1.33-8.84,3.66-2.33,2.32-3.66,5.54-3.66,8.84 0,3.29 1.33,6.51 3.66,8.84 2.32,2.32 5.55,3.66 8.84,3.66z"/>
		 <path d="m283.778,305.004c3.29,0 6.51-1.34 8.84-3.67 2.32-2.32 3.66-5.54 3.66-8.83s-1.34-6.52-3.66-8.84c-2.33-2.33-5.55-3.66-8.84-3.66s-6.52,1.33-8.84,3.66c-2.33,2.32-3.66,5.55-3.66,8.84s1.33,6.51 3.66,8.83c2.32,2.33 5.55,3.67 8.84,3.67z"/>
  </g>
	</g>

	<g id="r14">
	<g>
	<g>
		<path d="M400.056,7.722c-27.915-16.006-63.654-6.321-79.663,21.596c-4.685,8.169-17.674,41.977-38.734,100.789
			c-8.454-1.832-17.034-2.779-25.659-2.779s-17.205,0.947-25.659,2.779c-21.06-58.813-34.049-92.62-38.734-100.789
			c-16.01-27.916-51.746-37.604-79.664-21.595C84.029,23.732,74.34,59.469,90.349,87.387c1.936,3.377,7.086,12.352,67.52,84.444
			c-1.192,1.221-2.376,2.456-3.545,3.722c-25.952,28.152-41.446,63.628-41.446,94.897c0,31.547,15.445,60.931,43.489,82.743
			c6.586,5.122,13.693,9.675,21.219,13.634c-20.941,20.423-33.967,48.927-33.967,80.419v13.642
			c0,28.183,22.929,51.112,51.112,51.112h122.539c18.852,0,35.34-10.267,44.2-25.496c0.391,0.008,0.777,0.029,1.17,0.029
			c30.948,0,56.126-25.178,56.126-56.126c0-30.948-25.178-56.126-56.126-56.126c-6.523,0-12.783,1.13-18.611,3.186
			c-2.978-3.749-6.191-7.301-9.614-10.64c7.528-3.959,14.634-8.512,21.219-13.634c28.044-21.812,43.489-51.196,43.489-82.743
			c0-31.269-15.494-66.745-41.446-94.897c-1.169-1.267-2.353-2.502-3.545-3.722c60.433-72.092,65.583-81.067,67.52-84.444
			C437.66,59.469,427.972,23.732,400.056,7.722z M362.64,407.958c12.379,0,22.45,10.071,22.45,22.45
			c0,10.392-7.108,19.131-16.709,21.679v-4.841c0-13.789-2.502-27.004-7.066-39.221C361.755,408,362.192,407.958,362.64,407.958z
			 M119.562,70.633c-6.771-11.809-2.673-26.926,9.135-33.698c3.863-2.216,8.077-3.267,12.239-3.267
			c8.564,0,16.901,4.455,21.458,12.403c1.532,2.672,8.265,17.237,36.246,95.397c-5.079,2.583-10.061,5.51-14.926,8.766
			C130.178,86.36,121.069,73.261,119.562,70.633z M334.706,447.246v13.642c0,9.614-7.822,17.436-17.436,17.436h-10.756v-31.079
			h-33.676v31.079h-33.676v-31.079h-33.676v31.079h-10.756c-9.614,0-17.436-7.822-17.436-17.436v-13.642
			c0-28.07,14.78-52.738,36.957-66.673c13.369,3.247,27.405,4.935,41.749,4.935c14.342,0,28.38-1.688,41.749-4.935
			C319.925,394.507,334.706,419.177,334.706,447.246z M365.445,270.45c0,44.875-49.097,81.383-109.446,81.383
			s-109.446-36.508-109.446-81.383c0-22.69,12.464-50.305,32.529-72.071c12.867-13.958,39.97-37.374,76.916-37.374
			s64.049,23.416,76.916,37.374C352.981,220.145,365.445,247.76,365.445,270.45z M392.437,70.633
			c-1.508,2.628-10.616,15.727-64.152,79.601c-4.865-3.254-9.847-6.183-14.926-8.766c27.981-78.16,34.714-92.726,36.246-95.398
			c4.557-7.947,12.894-12.402,21.458-12.402c4.162,0,8.377,1.052,12.239,3.265C395.111,43.706,399.209,58.824,392.437,70.633z"/>
	</g>
</g>
		<g>
	<g>
		<path d="M256.001,288.971c-12.399,0-22.45,4.17-22.45,13.47c0,9.299,10.051,21.328,22.45,21.328s22.45-12.029,22.45-21.328
			C278.451,293.141,268.4,288.971,256.001,288.971z"/>
	</g>
</g>
		<g>
	<g>
		<circle cx="194.263" cy="262.03" r="16.838"/>
	</g>
</g>
		<g>
	<g>
		<circle cx="317.74" cy="262.03" r="16.838"/>
	</g>
</g>
	</g>

	<g id="r15">
	<g>
	<g>
		<path d="M367.764,204.821c-0.826-1.184-1.683-2.362-2.545-3.501c-3.546-4.687-10.223-5.61-14.909-2.063s-5.61,10.223-2.063,14.91
			c0.698,0.923,1.392,1.878,2.063,2.838c2.069,2.964,5.376,4.552,8.736,4.552c2.103,0,4.228-0.622,6.083-1.917
			C369.949,216.275,371.128,209.64,367.764,204.821z"/>
	</g>
</g>
		<g>
	<g>
		<path d="M260.348,267.021c-2.767-1.239-5.933-1.239-8.699,0c-4.334,1.94-18.477,9.255-18.477,21.897
			c0,5.878,4.765,10.643,10.643,10.643c5.365,0,9.803-3.969,10.537-9.131c0.375-0.402,0.955-0.89,1.645-1.396
			c0.692,0.507,1.272,0.994,1.647,1.396c0.734,5.162,5.172,9.131,10.537,9.131c5.878,0,10.643-4.765,10.643-10.643
			C278.824,276.276,264.682,268.961,260.348,267.021z"/>
	</g>
</g>
		<g>
	<g>
		<path d="M193.424,244.955c-5.878,0-10.643,4.765-10.643,10.643v3.77c0,5.878,4.765,10.643,10.643,10.643
			c5.878,0,10.643-4.765,10.643-10.643v-3.77C204.068,249.72,199.302,244.955,193.424,244.955z"/>
	</g>
</g>
		<g>
	<g>
		<path d="M314.801,244.955c-5.878,0-10.643,4.765-10.643,10.643v3.77c0,5.878,4.765,10.643,10.643,10.643
			s10.643-4.765,10.643-10.643v-3.77C325.445,249.72,320.68,244.955,314.801,244.955z"/>
	</g>
</g>
		<g>
	<g>
		<path d="M391.879,490.713h-24.502v-23.136c0-29.195-21.129-53.532-48.895-58.566v-13.103c0-10.751-2.737-21.131-7.849-30.318
			c45.905-18.219,75.819-57.913,75.819-102.511c0-8.413-1.075-16.804-3.193-24.94c-1.483-5.689-7.295-9.097-12.983-7.617
			c-5.689,1.482-9.099,7.295-7.617,12.983c1.664,6.385,2.507,12.971,2.507,19.574c0,39.406-29.943,74.298-74.512,86.826
			c-11.145,3.137-22.803,4.727-34.654,4.727c-11.85,0-23.509-1.59-34.657-4.728c-44.567-12.526-74.509-47.418-74.509-86.824
			c0-30.749,18.313-59.292,48.989-76.356c10.882-6.057,22.835-10.376,35.527-12.835c16.11-3.121,33.192-3.12,49.299,0
			c12.693,2.46,24.646,6.779,35.531,12.837c4.63,2.576,9.067,5.475,13.187,8.616c4.675,3.563,11.352,2.664,14.917-2.01
			c3.564-4.675,2.664-11.353-2.011-14.917c-2.243-1.709-4.569-3.349-6.95-4.927c6.434-12.959,13.629-29.009,21.847-48.721
			c21.154-50.759,27.201-86.659,17.972-106.705c-3.759-8.167-10.111-13.896-18.374-16.57c-8.257-2.668-16.758-1.744-24.584,2.672
			c-19.209,10.839-35.33,43.487-47.913,97.04c-4.638,19.761-8.08,36.268-10.448,50.103c-11.797-1.386-23.849-1.386-35.647,0
			c-2.367-13.835-5.809-30.343-10.448-50.105c-12.583-53.551-28.703-86.2-47.912-97.038c-7.827-4.416-16.329-5.339-24.588-2.67
			c-8.258,2.673-14.61,8.402-18.369,16.569c-9.229,20.045-3.181,55.946,17.973,106.706c8.216,19.708,15.409,35.755,21.843,48.715
			c-32.194,21.29-51.128,54.134-51.128,89.598c0,44.599,29.914,84.292,75.819,102.511c-5.112,9.187-7.849,19.567-7.849,30.318
			v13.103c-27.766,5.034-48.895,29.371-48.895,58.566v23.135H120.12c-5.878,0-10.643,4.765-10.643,10.643
			s4.765,10.643,10.643,10.643h271.761c5.878,0,10.643-4.765,10.643-10.643S397.757,490.713,391.879,490.713z M304.991,106.07
			c10.537-44.846,24.613-76.012,37.651-83.369c2.689-1.518,4.955-1.803,7.574-0.957c2.624,0.849,4.296,2.41,5.588,5.217
			c6.265,13.609-0.57,47.109-18.285,89.614c-7.862,18.861-14.727,34.208-20.837,46.58c-7.027-3.198-14.366-5.807-21.952-7.839
			C297.02,141.85,300.401,125.628,304.991,106.07z M174.477,116.578c-17.715-42.507-24.55-76.007-18.285-89.615
			c1.293-2.808,2.964-4.368,5.585-5.216c2.624-0.848,4.887-0.562,7.578,0.955c13.038,7.357,27.113,38.523,37.65,83.365
			c4.592,19.559,7.972,35.783,10.262,49.25c-7.587,2.031-14.926,4.641-21.952,7.838
			C189.204,150.784,182.339,135.439,174.477,116.578z M193.514,490.713h-27.608v-23.136c0-17.399,11.68-32.11,27.608-36.734V490.713
			z M297.193,418.683v72.03h-30.552v-64.761c0-5.878-4.765-10.643-10.643-10.643s-10.643,4.765-10.643,10.643v64.761H214.8v-72.03
			v-22.775c0-8.619,2.656-16.881,7.567-23.798c10.932,2.516,22.208,3.808,33.629,3.808c11.421,0,22.699-1.292,33.629-3.808
			c4.912,6.917,7.567,15.18,7.567,23.798V418.683z M346.09,490.713h-27.608v-59.869c15.928,4.622,27.608,19.335,27.608,36.734
			V490.713z"/>
	</g>
</g>
	</g>

	<g id="r16">
	<g>
	<g>
		<path d="M473.039,169.631c19.502-38.619,29.569-82.742,28.346-124.241C500.399,11.93,479.811,0.003,460.871,0
			c-0.003,0-0.006,0-0.01,0C410.707,0,330.42,81.131,317.286,181.684c-9.26-2.368-18.958-3.63-28.945-3.63h-66.616
			c-9.318,0-18.382,1.102-27.075,3.173C181.333,80.885,101.216,0,51.137,0C29.398,0,11.518,14.742,10.615,45.39
			c-1.223,41.5,8.843,85.622,28.346,124.241c18.405,36.448,43.574,65.245,73.368,84.155c-4.832,12.806-7.486,26.672-7.486,41.149
			v33.44c-20.264,15.247-33.395,39.489-33.395,66.744c0,46.035,37.452,83.487,83.487,83.487h33.392
			c15.628,20.793,40.318,33.361,66.726,33.395c26.37-0.033,51.056-12.602,66.682-33.395h33.392
			c46.034,0,83.487-37.452,83.487-83.487c0-27.255-13.131-51.497-33.395-66.744v-33.44c0-14.107-2.512-27.639-7.113-40.17
			C428.585,235.878,454.312,206.714,473.039,169.631z M43.994,46.373c0.238-8.085,2.243-10.995,2.852-11.695
			c4.378-5.05,35.948,3.357,70.101,46.895c15.506,19.768,41.115,59.78,45.558,112.632c-13.216,7.8-24.771,18.122-33.998,30.305
			C70.629,186.825,42.164,108.536,43.994,46.373z M255.055,478.606c-10.431-0.014-20.411-3.318-28.698-9.13
			c11.324-5.783,21.118-14.045,28.677-24.074c7.559,10.031,17.353,18.292,28.678,24.075
			C275.429,475.289,265.461,478.593,255.055,478.606z M405.222,395.119c0,27.621-22.471,50.203-50.092,50.203
			c-0.435,0-37.625,0.148-38.047,0.045c-0.567-0.138-1.489-0.525-1.834-0.57c-22.697-2.924-40.298-20.796-43.182-43.186
			l28.081-28.079c6.521-6.521,6.521-17.093,0-23.613c-6.52-6.521-17.093-6.52-23.613,0l-21.501,21.501l-21.501-21.501
			c-6.52-6.52-17.092-6.521-23.613,0c-6.521,6.521-6.521,17.092,0,23.613L238,401.611c-2.734,21.229-18.936,39.756-43.403,43.226
			c-0.567,0.08-1.217,0.433-1.617,0.531c-0.099,0.025-38.043-0.046-38.043-0.046c-27.621,0-50.092-22.583-50.092-50.203
			s22.471-50.092,50.092-50.092c9.221,0,16.697-7.476,16.697-16.697c0-9.221-7.476-16.697-16.697-16.697
			c-5.717,0-11.301,0.58-16.697,1.68v-18.377c0-46.035,37.452-83.487,83.487-83.487h66.616c46.035,0,83.487,37.452,83.487,83.487
			v18.377c-5.398-1.1-10.981-1.68-16.698-1.68c-9.221,0-16.697,7.476-16.697,16.697s7.476,16.697,16.697,16.697
			C382.751,345.027,405.222,367.498,405.222,395.119z M382.193,225.35c-8.9-11.973-20.033-22.189-32.779-30.032
			c4.175-53.4,30.024-93.839,45.638-113.744c32.538-41.481,65.114-52.629,70.102-46.896c0.609,0.699,2.614,3.61,2.852,11.695
			C469.85,109,440.945,187.998,382.193,225.35z"/>
	</g>
</g>
		<g>
	<g>
		<circle cx="204.943" cy="294.93" r="16.697"/>
	</g>
</g>
		<g>
	<g>
		<circle cx="305.127" cy="294.93" r="16.697"/>
	</g>
</g>
	</g>

	<g id="r17">
	<defs><style>.a{fill:#ffffff;}.b{fill:#211715;}.c{fill:#f8b8b4;}</style></defs><path class="a" d="M79.73,56H71.883c.367-14.274,1.13-30.642-5.078-44.06-1.537-3.323-4.634-8.1-8.875-9.2a8.606,8.606,0,0,0-7.441,1.22A14.557,14.557,0,0,0,45.548,10.8,40.107,40.107,0,0,0,43.017,24.2a53.783,53.783,0,0,0,1.44,13.428,100.237,100.237,0,0,0,6.7,20.3,38.04,38.04,0,0,0-12.23,9.042c-6.866,7.185-12.76,20.346-12.753,29.733a30.409,30.409,0,0,0-5.819,23.5A25.16,25.16,0,0,0,34.5,138.473c.249.109.5.214.753.314a92.358,92.358,0,0,0-21.1,61.731,50.918,50.918,0,0,0-5.761,9.062c-3.345,7.525-5.4,13.405-5.878,21.96-.459,8.182.727,13.5,3.943,19.227a44.006,44.006,0,0,0,6.864,8.654c8.174,7.118,21.158,9.71,29.2,11.859-.554,2.726-1.295,5.9-.813,7.382a11.166,11.166,0,0,0,7.289,6.788,18.384,18.384,0,0,0,9.066.786c1.907-.221,4.686-.741,6.233-2.013,1.992-1.637,4.889-5.24,5.333-7.963a11.8,11.8,0,0,0,.018-3H82.544a11.8,11.8,0,0,0,.018,3c.444,2.723,3.341,6.326,5.333,7.963,1.547,1.272,4.326,1.792,6.233,2.013a18.384,18.384,0,0,0,9.066-.786,11.166,11.166,0,0,0,7.289-6.788c.441-1.361-.305-4.422-.967-7.212,7.973-2.185,21.431-4.723,29.822-12.029a44.006,44.006,0,0,0,6.864-8.654c3.216-5.727,4.4-11.045,3.943-19.227-.48-8.555-2.533-14.435-5.878-21.96a54.043,54.043,0,0,0-6.3-9.778,92.442,92.442,0,0,0-21.1-60.994c.27-.107.539-.218.806-.335a25.16,25.16,0,0,0,14.136-18.262,30.409,30.409,0,0,0-5.819-23.5c.007-9.387-5.887-22.548-12.753-29.733a37.968,37.968,0,0,0-12.166-9.009,100.126,100.126,0,0,0,6.721-20.336,53.783,53.783,0,0,0,1.44-13.428A40.107,40.107,0,0,0,106.7,10.8a14.557,14.557,0,0,0-4.941-6.834,8.606,8.606,0,0,0-7.441-1.22c-4.241,1.1-7.338,5.877-8.875,9.2C79.232,25.361,80,41.729,80.362,56Z"/><path class="b" d="M49.113,56.291C36.465,62.879,27.875,75.523,24.7,89.3,24,92.3,28.627,93.586,29.323,90.573a51.427,51.427,0,0,1,8.41-18.421,39.043,39.043,0,0,1,13.8-11.716c2.741-1.428.317-5.572-2.423-4.145Z"/><path class="b" d="M23.575,96.214a32.822,32.822,0,0,0-5.844,22.567,28.178,28.178,0,0,0,10.333,18.575c3.751,2.94,8.02,4.27,12.5,5.706,2.949.945,4.211-3.688,1.276-4.629-3.431-1.1-6.823-2.025-9.827-4.089a21.987,21.987,0,0,1-6.075-6.439,24.657,24.657,0,0,1-3-18.542A30.391,30.391,0,0,1,27.72,98.637a2.423,2.423,0,0,0-.861-3.284,2.449,2.449,0,0,0-3.284.861Z"/><path class="b" d="M78.687,118.358c-1.837.568-6.058.211-6.408-3.254.04-4.581,5.145-4.838,7.541-3.3C81.782,113.06,82.589,116.771,78.687,118.358Z"/><path class="b" d="M53.359,100.112c-.748,2.42-.278,7.981,4.288,8.442,6.036-.052,6.374-6.778,4.35-9.935C60.34,96.034,55.45,94.971,53.359,100.112Z"/><path class="b" d="M98.886,100.112c.748,2.42.278,7.982-4.288,8.443-6.036-.053-6.374-6.78-4.35-9.936C91.905,96.034,96.794,94.97,98.886,100.112Z"/><path class="b" d="M75.4,126.734a26.108,26.108,0,0,1,2.86-2.57l-.486.376q.195-.15.392-.3l-2.908-.375a34.1,34.1,0,0,1,3.2,2.81,2.4,2.4,0,0,0,3.394-3.394,33.832,33.832,0,0,0-3.195-2.81,2.692,2.692,0,0,0-1.378-.66,2.207,2.207,0,0,0-1.531.285,30.428,30.428,0,0,0-3.737,3.242,2.4,2.4,0,1,0,3.394,3.394Z"/><path class="b" d="M74.558,119.03v2.621a2.658,2.658,0,0,0,.7,1.7,1.785,1.785,0,0,0,.772.5,1.8,1.8,0,0,0,.925.207l.638-.086a2.4,2.4,0,0,0,1.059-.617,2.494,2.494,0,0,0,.7-1.7V119.03a2.469,2.469,0,0,0-2.4-2.4l-.638.086a2.4,2.4,0,0,0-1.059.617,2.491,2.491,0,0,0-.7,1.7Z"/><path class="b" d="M100.629,60.436a39.039,39.039,0,0,1,13.8,11.716,51.429,51.429,0,0,1,8.411,18.421c.694,3.008,5.323,1.735,4.628-1.276-3.18-13.774-11.77-26.418-24.419-33.006-2.736-1.425-5.166,2.716-2.422,4.145Z"/><path class="b" d="M74.283,56c.219-8.442.534-16.919-.332-25.337-.815-7.917-2.472-16.507-6.924-23.266-2.021-3.07-4.793-6-8.459-6.972A11.541,11.541,0,0,0,46.881,3.976c-2.911,3.216-4.365,7.5-5.265,11.676a47.855,47.855,0,0,0-.818,14.1,82.118,82.118,0,0,0,3.15,15.509,86.645,86.645,0,0,0,5.577,14.77,2.423,2.423,0,0,0,3.283.861,2.449,2.449,0,0,0,.861-3.284,88.781,88.781,0,0,1-7.533-23.7,48.442,48.442,0,0,1-.559-12.65A30.672,30.672,0,0,1,48.563,9.911c1.543-2.924,4.13-5.492,7.683-5.068,2.935.349,5.089,2.628,6.637,4.979,3.862,5.865,5.441,13.326,6.2,20.207.95,8.625.624,17.319.4,25.974-.08,3.09,4.72,3.088,4.8,0Z"/><path class="b" d="M82.762,56a222.351,222.351,0,0,1,.122-22.992c.558-7.182,1.864-14.775,5.3-21.2,1.33-2.489,3.14-5.163,5.772-6.408,3.13-1.48,6.353-.153,8.4,2.405,2.314,2.889,3.273,6.9,3.914,10.464a44.77,44.77,0,0,1,.29,12.44,79.1,79.1,0,0,1-3.014,13.71A78.8,78.8,0,0,1,98.576,57.61a2.46,2.46,0,0,0,.861,3.284,2.422,2.422,0,0,0,3.283-.861,83.829,83.829,0,0,0,5.064-13.016,94,94,0,0,0,3.222-13.5,51.931,51.931,0,0,0,.229-14.294c-.575-4.341-1.647-8.976-3.983-12.739C104.976,2.817,101.29-.029,96.822,0A12.953,12.953,0,0,0,86.94,5.082c-5.054,6.132-7.17,14.472-8.231,22.192-1.31,9.532-1,19.139-.747,28.729.08,3.083,4.881,3.095,4.8,0Z"/><path class="b" d="M124.445,98.637a28.715,28.715,0,0,1,5.265,19.529A23.416,23.416,0,0,1,121,133.735c-3.17,2.47-6.908,3.492-10.671,4.7-2.93.94-1.677,5.576,1.276,4.629,3.864-1.238,7.759-2.325,11.126-4.677a27.861,27.861,0,0,0,7.546-7.9,29.546,29.546,0,0,0,3.674-21.993,33.931,33.931,0,0,0-5.357-12.277,2.463,2.463,0,0,0-3.284-.861,2.421,2.421,0,0,0-.861,3.284Z"/><path class="c" d="M98.356,26.809a3.142,3.142,0,0,0-2-2.436,3.035,3.035,0,0,0-2.9.966,7.366,7.366,0,0,0-1.7,2.713,91.884,91.884,0,0,0-4.194,24.82,1.793,1.793,0,0,0,.6,1.551,11.6,11.6,0,0,0,4.066,1.467,2.283,2.283,0,0,0,1.506-.157,1.425,1.425,0,0,0,.667-.941c1.354-5.337,2.3-9.933,3.271-15.031a53.06,53.06,0,0,0,.943-10.709A10.361,10.361,0,0,0,98.356,26.809Z"/><path class="c" d="M53.829,26.809a3.139,3.139,0,0,1,2-2.436,3.033,3.033,0,0,1,2.9.966,7.368,7.368,0,0,1,1.7,2.713,91.922,91.922,0,0,1,4.194,24.82,1.793,1.793,0,0,1-.6,1.551,11.594,11.594,0,0,1-4.067,1.467,2.281,2.281,0,0,1-1.5-.157,1.419,1.419,0,0,1-.667-.941c-1.354-5.337-2.3-9.933-3.271-15.031a52.988,52.988,0,0,1-.943-10.709A10.361,10.361,0,0,1,53.829,26.809Z"/><path class="b" d="M138.528,204.611A53.205,53.205,0,0,1,147.8,236.7a29.866,29.866,0,0,1-13.177,23.27c-5.261,3.392-11.282,5.329-17.278,6.964-2.977.812-1.713,5.444,1.276,4.629a71.411,71.411,0,0,0,16.7-6.4,30.015,30.015,0,0,0,6.712-4.993,48.444,48.444,0,0,0,4.983-6.214c6.6-9.551,6.728-21.988,3.982-32.911a58.334,58.334,0,0,0-8.324-18.849,2.464,2.464,0,0,0-3.284-.861,2.422,2.422,0,0,0-.861,3.284Z"/><path class="b" d="M9.98,202.188a58.835,58.835,0,0,0-7.7,16.6,54.216,54.216,0,0,0-2.2,18.3A32.784,32.784,0,0,0,4.64,252.421,35.865,35.865,0,0,0,15.272,263.89c5.652,3.743,12.27,5.9,18.761,7.668,2.984.814,4.257-3.816,1.276-4.629a66.807,66.807,0,0,1-15.377-5.819A30.352,30.352,0,0,1,9.6,251.255c-5.807-8.562-5.742-19.608-3.216-29.32a54.518,54.518,0,0,1,7.744-17.324,2.423,2.423,0,0,0-.861-3.284,2.45,2.45,0,0,0-3.284.861Z"/><path class="b" d="M33.531,137.106a96.386,96.386,0,0,0-21.456,51.768,88.475,88.475,0,0,0-.07,15.763,2.463,2.463,0,0,0,2.4,2.4,2.418,2.418,0,0,0,2.4-2.4,89.362,89.362,0,0,1,11.47-51.486,91.3,91.3,0,0,1,8.65-12.651,2.471,2.471,0,0,0,0-3.394,2.418,2.418,0,0,0-3.394,0Z"/><path class="b" d="M115.162,140.5a90.7,90.7,0,0,1,20.106,48.986,88.317,88.317,0,0,1,.013,15.151,2.42,2.42,0,0,0,2.4,2.4,2.448,2.448,0,0,0,2.4-2.4,93.864,93.864,0,0,0-12.228-54.09,98.687,98.687,0,0,0-9.3-13.441,2.417,2.417,0,0,0-3.394,0,2.455,2.455,0,0,0,0,3.394Z"/><path class="b" d="M109.287,245.387c-.667,3.8-1.36,7.6-1.919,11.417-.258,1.755-.494,3.515-.688,5.278a31.913,31.913,0,0,0-.385,5.1,42.886,42.886,0,0,0,1.38,6.937,19.162,19.162,0,0,1,.524,2.986c.012.223.011.444.014.668.011.627.153-.427,0,.1a6.463,6.463,0,0,1-.921,1.876c-3.3,4.739-10.556,4.971-15.6,3.612-2.649-.713-4.429-2.864-5.8-5.185a6.2,6.2,0,0,1-1.037-3.1c-.021-1.826.355-3.617.472-5.432.417-6.475.6-12.97.963-19.448.175-3.087-4.626-3.077-4.8,0-.355,6.305-.649,12.612-.937,18.92-.081,1.788-.443,3.552-.492,5.341a10.811,10.811,0,0,0,1.09,5.023,17.207,17.207,0,0,0,6.345,7.37c2.958,1.655,6.9,2.066,10.227,2.011a18.419,18.419,0,0,0,10.1-3.063c2.558-1.8,5.01-4.654,5.178-7.923.132-2.579-.767-5.286-1.346-7.772-.161-.693-.321-1.387-.45-2.087-.025-.135-.129-.866-.081-.424a6.881,6.881,0,0,1-.048-.772,53.31,53.31,0,0,1,.615-6.584c.577-4.546,1.425-9.055,2.217-13.567a2.469,2.469,0,0,0-1.676-2.952,2.42,2.42,0,0,0-2.953,1.676Z"/><path class="b" d="M92.69,281.066c.017.036.033.073.049.11L92.5,280.6a4.47,4.47,0,0,1,.279,1.074l-.086-.638a6.676,6.676,0,0,1-.007,1.683l.085-.638a6.91,6.91,0,0,1-.471,1.753,2.4,2.4,0,0,0,.242,1.85,2.4,2.4,0,0,0,3.283.861l.486-.375a2.4,2.4,0,0,0,.617-1.059,8.68,8.68,0,0,0,.614-3.1,9.252,9.252,0,0,0-.16-1.78,6.4,6.4,0,0,0-.545-1.587,2.408,2.408,0,0,0-1.434-1.1,2.455,2.455,0,0,0-1.849.242,2.422,2.422,0,0,0-1.1,1.435l-.086.638a2.375,2.375,0,0,0,.328,1.211Z"/><path class="b" d="M100.992,279.887a4.18,4.18,0,0,1,.262,1l-.086-.638a8.589,8.589,0,0,1-.049,2.219l.085-.638a8.307,8.307,0,0,1-.282,1.494l.242-.573a.457.457,0,0,1-.072.127,2.4,2.4,0,0,0,2.711,3.526,2.675,2.675,0,0,0,1.434-1.1,4.344,4.344,0,0,0,.532-1.77,18.861,18.861,0,0,0,.235-1.91,7.37,7.37,0,0,0-.026-1.3,6.388,6.388,0,0,0-.357-1.717,2.69,2.69,0,0,0-1.1-1.434,2.4,2.4,0,0,0-3.284.861,2.321,2.321,0,0,0-.242,1.849Z"/><path class="b" d="M38.264,246.663c.63,3.622,1.126,7.265,1.523,10.92q.323,2.956.56,5.922a36.119,36.119,0,0,1,.262,4.692,1.622,1.622,0,0,1-.028.347c-.045.327-.106.653-.166.978-.123.67-.264,1.337-.4,2-.3,1.459-.591,2.919-.765,4.4a9.785,9.785,0,0,0,3,8.113c4.93,5.092,13.189,5.734,19.7,3.9,3.327-.938,5.57-3.191,7.552-5.923a14.666,14.666,0,0,0,2.262-4.367,13.741,13.741,0,0,0,.161-5.521c-.339-2.871-.408-5.754-.544-8.64q-.312-6.649-.686-13.3c-.175-3.072-4.976-3.092-4.8,0q.524,9.249.92,18.506c.107,2.594,1.154,5.7.15,8.2-.87,2.158-2.885,4.96-5,5.967a17.98,17.98,0,0,1-8.476,1.154A12.451,12.451,0,0,1,45.89,280.9a7.989,7.989,0,0,1-1.879-2.871c-.043-.107-.106-.681-.054-.149a5.914,5.914,0,0,1-.012-.717,10.71,10.71,0,0,1,.173-1.648,64.771,64.771,0,0,0,1.3-7.426,37.533,37.533,0,0,0-.287-4.794q-.249-3.079-.591-6.15c-.437-3.932-.969-7.856-1.646-11.753a2.42,2.42,0,0,0-2.953-1.676,2.454,2.454,0,0,0-1.676,2.952Z"/><path class="b" d="M55.346,278.643a6.451,6.451,0,0,0-.539,1.554,9.116,9.116,0,0,0-.166,1.813,8.684,8.684,0,0,0,.614,3.1,2.682,2.682,0,0,0,1.1,1.434,2.456,2.456,0,0,0,1.85.242,2.426,2.426,0,0,0,1.434-1.1,2.308,2.308,0,0,0,.242-1.85,6.91,6.91,0,0,1-.471-1.753l.085.638a6.676,6.676,0,0,1-.007-1.683l-.086.638a4.47,4.47,0,0,1,.279-1.074l-.242.573c.016-.037.032-.074.049-.11a1.777,1.777,0,0,0,.285-.892,1.812,1.812,0,0,0-.043-.957,2.4,2.4,0,0,0-2.952-1.677,2.342,2.342,0,0,0-1.434,1.1Z"/><path class="b" d="M46.559,278.611a6.388,6.388,0,0,0-.357,1.717,7.37,7.37,0,0,0-.026,1.3,18.861,18.861,0,0,0,.235,1.91,4.344,4.344,0,0,0,.532,1.77,2.562,2.562,0,0,0,1.434,1.1,2.458,2.458,0,0,0,1.85-.242,2.43,2.43,0,0,0,1.1-1.435,2.393,2.393,0,0,0-.242-1.849.457.457,0,0,1-.072-.127l.242.573a8.4,8.4,0,0,1-.283-1.494l.086.638a8.589,8.589,0,0,1-.049-2.219l-.086.638a4.18,4.18,0,0,1,.262-1,2.4,2.4,0,0,0-.242-1.849,2.4,2.4,0,0,0-3.284-.861l-.486.375a2.4,2.4,0,0,0-.617,1.059Z"/><path class="b" d="M70.458,145.886a20.3,20.3,0,0,0,11.329-.008,2.4,2.4,0,0,0-1.276-4.629,22.507,22.507,0,0,1-2.445.555c-.56.095.414-.034-.1.014-.215.02-.429.044-.645.06q-.6.045-1.195.045-.552,0-1.1-.036-.322-.022-.645-.056c-.092-.01-.185-.02-.277-.032q.495.069.082.009a23.869,23.869,0,0,1-2.446-.551,2.4,2.4,0,0,0-1.276,4.629Z"/>
	</g>

	<g id="r18">
	<path d="M528.683707 447.368117c1.076449-62.868605 8.496702-117.927337 22.263259-165.1712 10.609639-36.429424 25.482615-65.528507 49.384273-92.072585 12.637659-14.031298 32.363395-26.456663 50.318361-20.592391 16.533854 5.399727 15.924449 35.802537 13.73159 55.271025-6.683473 59.409483-17.437971 93.308878-30.827395 121.43641-16.37401 34.391415-25.874732 60.136273-56.120195 117.430322" fill="#FAF1E1" /><path d="M533.783727 446.459005c2.152898-62.209249 10.429815-116.478751 24.808273-162.798517 11.288976-36.37198 26.451668-63.7952 49.309346-88.301268 13.576741-14.555785 30.252956-22.063454 42.740761-17.742674 8.554146 2.95961 11.119141 21.89362 7.787395 47.453659-6.918244 53.093151-16.746146 87.407141-32.218536 118.504273a1148.138771 1148.138771 0 0 0-10.622127 21.986029l-2.792273 5.91922c-18.01241 38.2976-26.331785 55.053737-44.606439 88.253814a7.492683 7.492683 0 1 0 13.12718 7.222947c18.459473-33.534751 26.901229-50.538146 45.038517-89.100488l2.779786-5.899239a1162.622127 1162.622127 0 0 1 10.489756-21.703805c16.254127-32.668098 26.54158-68.578029 33.664624-123.249639 1.668371-12.787512 2.097951-24.723356 0.724293-34.875941-1.973073-14.585756-7.637541-24.925659-18.471961-28.672-19.318634-6.685971-41.419551 3.26681-58.595278 21.681326-24.476098 26.244371-40.73522 55.645659-52.663571 94.083122-14.798049 47.680937-23.277268 103.249171-25.475122 166.724683a7.492683 7.492683 0 1 0 14.975376 0.516995z" fill="#524F75" /><path d="M535.649405 689.753912l37.288585-7.80238c31.823922-6.663493 63.023454 13.736585 69.684449 45.560507 0.831688 3.966127 1.24878 8.009678 1.248781 12.06322 0 40.023415-32.445815 72.471727-72.471727 72.471726h-33.836956c-30.670049 0-55.533268-24.86322-55.533269-55.535765v-0.754264c0-31.918829 22.378146-59.464429 53.620137-66.003044z" fill="#FAF1E1" /><path d="M537.182907 697.086751C509.412527 702.901073 489.521951 727.384663 489.521951 755.759454v0.751766c0 26.53159 21.508995 48.040585 48.040586 48.040585h33.836956c35.887454 0 64.979044-29.09159 64.979044-64.979044 0-3.539044-0.364644-7.0656-1.091435-10.52722-5.811824-27.775376-33.040234-45.580488-60.815609-39.766165l-37.288586 7.807375z m-3.069502-14.668175l37.288585-7.804878c35.874966-7.505171 71.04562 15.489873 78.553288 51.364839 0.936585 4.470634 1.406127 9.026185 1.406127 13.596722 0 44.161873-35.802537 79.96441-79.96441 79.964409h-33.834458c-34.808507 0-63.025951-28.219941-63.025952-63.028448v-0.754264c0-35.465366 24.865717-66.06798 59.57682-73.33838z" fill="#524F75" /><path d="M520.863844 782.770576c38.961951-7.784898 66.977093-12.27801 84.050419-13.476839 14.510829-1.019005 32.86041-0.484527 55.056235 1.603434A26.876254 26.876254 0 0 1 684.331707 797.656039c0 13.277034-10.764488 24.041522-24.041522 24.041522h-139.151609a17.690224 17.690224 0 0 1-17.690225-17.690224 21.661346 21.661346 0 0 1 17.415493-21.236761z" fill="#FAF1E1" /><path d="M510.943532 804.007337A10.197541 10.197541 0 0 0 521.141073 814.204878h139.15161a16.548839 16.548839 0 0 0 16.546341-16.548839 19.386068 19.386068 0 0 0-17.570341-19.301151c-21.818693-2.052995-39.781151-2.574985-53.829932-1.590947-16.673717 1.173854-44.436605 5.624507-83.106341 13.354459a14.161171 14.161171 0 0 0-11.388878 13.888937z m93.446244-42.1888c14.967883-1.053971 33.712078-0.507005 56.282536 1.615922A34.371434 34.371434 0 0 1 691.82439 797.656039c0 17.415493-14.116215 31.534205-31.534205 31.534205h-139.151609c-13.90642 0-25.182907-11.276488-25.182908-25.182907a29.149034 29.149034 0 0 1 23.437112-28.582088c39.254166-7.847337 67.524059-12.38041 84.996996-13.606712z" fill="#524F75" /><path d="M676.34201 790.1184h-22.438088a7.49518 7.49518 0 0 0 0 14.985366h22.438088a7.492683 7.492683 0 0 0 0-14.985366z" fill="#524F75" /><path d="M579.434146 659.063883l48.550088-7.040624c12.982322-1.503532 24.720859 7.832351 26.219395 20.852136 0.1024 0.90162 0.154849 1.810732 0.154849 2.717346 0 13.104702-10.594654 23.726829-23.66439 23.72683a24.051512 24.051512 0 0 1-2.712351-0.154849l-44.936117-3.848742" fill="#FAF1E1" /><path d="M580.510595 666.479141l48.552585-7.040624c8.649054-0.996527 16.673717 5.382244 17.697718 14.291044 0.072429 0.619395 0.107395 1.241288 0.107395 1.86318 0 8.971239-7.242927 16.234146-16.171708 16.234147-0.616898 0-1.233795-0.034966-1.848195-0.107395l-45.160897-3.87122a7.487688 7.487688 0 0 0-8.102088 6.825834 7.487688 7.487688 0 0 0 6.823336 8.102088l44.936118 3.848742c0.966556 0.117385 2.157893 0.18482 3.351726 0.184819 17.21319 0 31.157073-13.981346 31.157074-31.219512 0-1.196332-0.067434-2.387668-0.2048-3.576507-1.970576-17.123278-17.425483-29.413776-34.521288-27.43321l-48.767376 7.068097a7.492683 7.492683 0 0 0 2.1504 14.830517z" fill="#524F75" /><path d="M325.931707 704.312195h4.995122c17.240663 0 31.219512 13.978849 31.219512 31.219512s-13.978849 31.219512-31.219512 31.219513h-4.995122c-17.240663 0-31.219512-13.978849-31.219512-31.219513s13.978849-31.219512 31.219512-31.219512z" fill="#FAF1E1" /><path d="M325.931707 711.804878a23.726829 23.726829 0 0 0 0 47.453659h4.995122a23.726829 23.726829 0 0 0 0-47.453659h-4.995122z m0-14.985366h4.995122c21.38162 0 38.712195 17.330576 38.712195 38.712195s-17.330576 38.712195-38.712195 38.712195h-4.995122c-21.38162 0-38.712195-17.330576-38.712195-38.712195s17.330576-38.712195 38.712195-38.712195z" fill="#524F75" /><path d="M586.307434 646.733424h54.48679c8.174517 0 16.306576-1.113912 24.178888-3.316761 47.598517-13.316995 72.82638-60.90802 68.9152-108.494048l-4.415688-23.227317c-15.374985-54.649132-70.258888-95.524215-113.496663-109.585483s-78.435902-15.17518-122.657717-5.736898-105.841639 48.475161-118.511766 118.828956l-0.63438 3.519064a108.616429 108.616429 0 0 0-1.718322 19.226224c0 25.687415 19.748215 61.352585 40.67278 81.175727-33.839454 13.896429-67.334244 40.188254-78.138693 76.782517a68.670439 68.670439 0 0 0-2.812253 19.453502c0 38.037854 30.922302 68.875239 69.065053 68.875239h150.500527c7.130537 0 14.218615-1.123902 20.994498-3.334244 35.475356-11.563707 54.833951-49.616546 43.237775-84.992a127.810185 127.810185 0 0 0-29.666029-49.174478z" fill="#FAF1E1" /><path d="M623.096507 693.572683c12.884917 39.316605-8.626576 81.605307-48.038087 94.447766a75.261502 75.261502 0 0 1-23.31723 3.703883h-150.500527C358.964449 791.726829 324.682927 757.540215 324.682927 715.361405c0-7.305366 1.048976-14.570771 3.119453-21.576429 9.700527-32.852917 37.033834-60.096312 72.519181-77.159649-19.990478-22.582946-35.357971-54.928859-35.357971-78.678166 0-6.893268 0.6144-13.771551 1.835708-20.552429l0.631882-3.521561c6.198946-34.42638 23.886673-63.802693 49.85881-86.562966 22.040976-19.313639 49.199454-32.872898 74.462283-38.265132 46.29479-9.880351 82.75918-8.299395 126.541425 5.9392 52.6336 17.118283 103.808624 62.846127 118.391882 114.680507l4.635474 24.246322c4.433171 53.909854-25.150439 102.961951-74.329913 116.718518a97.245034 97.245034 0 0 1-26.196917 3.59399h-38.240156a135.282888 135.282888 0 0 1 20.542439 39.349073z m99.075747-180.156566c-13.217093-46.429659-60.408507-88.538537-108.51403-104.180761-41.229737-13.409405-75.019239-14.875473-118.776507-5.534595-22.770263 4.860254-47.60601 17.255649-67.713873 34.878439-23.519532 20.612371-39.416507 47.014088-44.986068 77.948878l-0.634381 3.519063a100.983883 100.983883 0 0 0-1.598439 17.90002c0 22.148371 17.5104 56.0128 38.332566 75.736039l8.411785 7.96722-10.719531 4.4032c-36.439415 14.962888-64.661854 41.022439-73.80043 71.972214a61.222712 61.222712 0 0 0-2.505053 17.330576C339.668293 749.253307 367.231376 776.741463 401.240663 776.741463h150.500527c6.343805 0 12.645151-1.001522 18.674264-2.967102 31.541698-10.279961 48.747395-44.096937 38.442458-75.533737a120.270049 120.270049 0 0 0-27.935219-46.29479l-12.300488-12.705093h72.172019c7.492683 0 14.945405-1.021502 22.160859-3.042029 41.719259-11.6736 67.166907-53.700059 63.492995-100.272078l-4.275824-22.510517z" fill="#524F75" /><path d="M572.371044 679.336585c17.01838 0 30.964761 13.5168 31.496741 30.530186l0.516995 16.566322c0.674341 21.583922-16.276605 39.626302-37.858029 40.300644-0.404605 0.012488-0.814205 0.01998-1.21881 0.01998-18.392039 0-33.302478-14.910439-33.302478-33.302478 0-2.117932 0.199805-4.228371 0.601913-6.306341l3.436644-17.815103A36.993873 36.993873 0 0 1 572.371044 679.336585zM622.052527 541.970732h39.888546c19.311141 0 34.965854 15.654712 34.965854 34.965853 0 2.3552-0.239766 4.707902-0.711805 7.020644l-0.097405 0.472039a53.115629 53.115629 0 0 1-52.03918 42.458537h-3.853737a53.682576 53.682576 0 0 1-52.493737-42.458537c-4.053541-18.966478 8.034654-37.628254 27.001132-41.681795a35.045776 35.045776 0 0 1 7.340332-0.776741z" fill="#FFFFFF" /><path d="M657.345561 546.965854c4.520585 0.034966 9.735493 0.914107 15.649717 2.644917 6.148995 1.73081 11.336429 5.399727 11.336429 12.163122 0 0.484527-0.032468 0.974049-0.094907 1.458575-1.026498 7.819863-8.276917 13.704117-16.891005 13.704117h-15.112741c-9.228488 0-17.343063-5.589541-19.893074-13.704117-1.790751-5.701932 1.815727-11.646127 8.044644-13.287024 1.723317-0.457054 8.17202-3.042029 16.960937-2.97959z" fill="#8B674F" /><path d="M647.163005 555.747278c-1.406127 0.362146-4.740371 1.408624-4.865249 1.441093-2.227824 0.586927-3.274302 2.315239-2.807258 3.79879 1.538498 4.902712 6.700956 8.459239 12.745053 8.459239h15.112742c4.967649 0 8.941268-3.224351 9.460761-7.18798a3.47161 3.47161 0 0 0 0.032468-0.48203c0-2.177873-1.653385-3.763824-5.946693-4.972644-5.287337-1.54599-9.835395-2.312741-13.599219-2.342712a39.016898 39.016898 0 0 0-10.132605 1.286244z m27.865288-13.351961c10.000234 2.819746 16.796098 9.330888 16.796097 19.378576 0 0.811707-0.052449 1.625912-0.157346 2.432624-1.531005 11.678595-12.06322 20.225249-24.318751 20.225249h-15.112742c-12.417873 0-23.482068-7.625054-27.041092-18.95399-3.111961-9.915317 3.047024-20.08039 13.284526-22.777756a95.207024 95.207024 0 0 1 4.950166-1.466069 53.97479 53.97479 0 0 1 13.973854-1.758283c5.272351 0.037463 11.159102 1.031493 17.625288 2.919649z" fill="#524F75" /><path d="M646.875785 497.913756a38.362537 38.362537 0 1 0 76.725074 0 38.362537 38.362537 0 1 0-76.725074 0Z" fill="#FFFFFF" /><path d="M685.238322 543.771473C659.910556 543.771473 639.37561 523.239024 639.37561 497.913756S659.910556 452.058537 685.238322 452.058537s45.862712 20.529951 45.862712 45.855219c0.002498 25.325268-20.532449 45.857717-45.862712 45.857717z m0-14.985366c17.053346 0 30.877346-13.821502 30.877346-30.869853S702.291668 467.043902 685.238322 467.043902 654.360976 480.865405 654.360976 497.913756s13.824 30.872351 30.877346 30.872351z" fill="#524F75" /><path d="M694.818966 509.912039a12.332956 12.332956 0 1 0-2.997073-8.311883l9.14357 1.328703-6.146497 6.98318z" fill="#232323" /><path d="M566.953834 498.480702a41.427044 41.427044 0 1 0 82.854088 0 41.427044 41.427044 0 1 0-82.854088 0Z" fill="#FFFFFF" /><path d="M608.380878 547.400429C581.359766 547.400429 559.453659 525.49682 559.453659 498.478205 559.453659 471.462088 581.359766 449.560976 608.380878 449.560976c27.021112 0 48.92722 21.901112 48.92722 48.917229 0 27.018615-21.906107 48.922224-48.92722 48.922224z m0-14.985366c18.746693 0 33.941854-15.195161 33.941854-33.934361S627.127571 464.546341 608.380878 464.546341 574.439024 479.739005 574.439024 498.478205s15.195161 33.936859 33.941854 33.936858z" fill="#524F75" /><path d="M611.557776 513.570966a13.062244 13.062244 0 0 0 9.905326 4.530575 13.082224 13.082224 0 1 0 0-26.164448 13.084722 13.084722 0 0 0-13.082224 12.817483l9.703024 1.408624-6.526126 7.407766z" fill="#232323" /><path d="M651.863415 586.926829v17.482927a7.49518 7.49518 0 0 0 14.985365 0v-17.482927a7.49518 7.49518 0 0 0-14.985365 0z" fill="#524F75" /><path d="M495.311298 729.4976c0.79922 3.848741 1.201327 7.769912 1.201326 11.701073 0 39.234185-32.003746 71.038127-71.48519 71.038127h-35.615219C359.181737 812.2368 334.673171 787.880585 334.673171 757.837424v-2.450107c0-20.804683 10.102634-39.643785 26.104507-51.389815" fill="#FAF1E1" /><path d="M487.975961 731.018615c0.69682 3.351727 1.046478 6.760898 1.046478 10.180058 0 35.085737-28.639532 63.545444-63.992507 63.545444H389.412215C363.307707 804.744117 342.165854 783.732137 342.165854 757.837424v-2.450107c0-18.019902 8.636566-34.776039 23.044995-45.348215a7.492683 7.492683 0 1 0-8.863844-12.080702C338.122302 711.332839 327.180488 732.552117 327.180488 755.38482v2.450107c0 34.19161 27.87278 61.892059 62.231727 61.892058h35.617717c43.607415 0 78.977873-35.148176 78.977873-78.530809 0-4.440663-0.454556-8.876332-1.358673-13.224586a7.492683 7.492683 0 0 0-14.673171 3.047025z" fill="#524F75" /><path d="M452.058537 646.868293m-9.990244 0a9.990244 9.990244 0 1 0 19.980487 0 9.990244 9.990244 0 1 0-19.980487 0Z" fill="#524F75" /><path d="M373.173073 783.607259c39.134283-7.672507 67.264312-12.100683 84.38759-13.277035 14.618224-1.006517 33.137639-0.469541 55.555747 1.615922A26.299317 26.299317 0 0 1 536.97561 798.130576 23.566985 23.566985 0 0 1 513.408624 821.697561H373.43282a17.338068 17.338068 0 0 1-17.338069-17.338068 21.144351 21.144351 0 0 1 17.078322-20.752234z" fill="#FAF1E1" /><path d="M363.587434 804.359493A9.842888 9.842888 0 0 0 373.43282 814.204878h139.975804A16.074302 16.074302 0 0 0 529.482927 798.130576a18.801639 18.801639 0 0 0-17.063337-18.724215c-22.048468-2.050498-40.180761-2.57998-54.346927-1.605932-16.731161 1.153873-44.608937 5.53959-83.460995 13.157151a13.654166 13.654166 0 0 0-11.024234 13.401913z m93.456234-41.506966c15.070283-1.038985 33.974322-0.487024 56.764566 1.630907C531.181268 766.101854 544.468293 780.680117 544.468293 798.130576 544.468293 815.286322 530.561873 829.190244 513.408624 829.190244H373.43282c-13.714107 0-24.830751-11.116644-24.830752-24.830751 0-13.691629 9.690537-25.470127 23.129912-28.105054 39.419005-7.729951 67.79879-12.19559 85.311688-13.401912z" fill="#524F75" /><path d="M528.985912 790.597932h-22.438088a7.492683 7.492683 0 1 0 0 14.985366h22.438088a7.49518 7.49518 0 0 0 0-14.985366z" fill="#524F75" /><path d="M411.65799 627.891824c4.468137 3.646439 7.56761 6.156488 9.323395 7.54763 4.058537 3.219356 7.69998 5.444683 11.089171 6.653502a7.492683 7.492683 0 1 0 5.040078-14.111219c-1.608429-0.571941-3.933659-1.995551-6.818341-4.283317a945.519141 945.519141 0 0 1-9.158556-7.417757 7.492683 7.492683 0 1 0-9.475747 11.611161z" fill="#524F75" /><path d="M464.821073 479.341893l-2.337717-3.116956m-11.383883-15.587278c-30.205502-40.053385-53.552702-78.798049-70.0416-116.236488-15.287571-34.711102-22.275746-69.921717-20.962029-105.626849 0.691824-18.881561 12.487805-35.617717 30.088117-42.695805 16.209171-6.518634 34.758556-1.748293 45.722849 11.758517 35.72761 44.02201 58.567805 89.505093 64.282224 118.426849 5.804332 29.391298 12.138146 57.373971 22.690342 106.031454" fill="#FAF1E1" /><path d="M471.04 474.781346l-2.33522-3.114458a7.492683 7.492683 0 1 0-11.985795 8.993717l2.340215 3.114458a7.490185 7.490185 0 1 0 11.9808-8.991219z m-13.73159-18.719219c-29.870829-39.60882-52.918322-77.861463-69.159961-114.742947-14.835512-33.692098-21.603902-67.773815-20.335142-102.332565 0.586927-15.919454 10.539707-30.040663 25.400195-36.01483 13.167141-5.294829 28.217444-1.42361 37.108761 9.528195 33.087688 40.767688 56.911922 85.583922 62.748722 115.152547 0.294712 1.503532 0.596917 3.014556 0.899122 4.533073 0.991532 4.945171 2.023024 9.990244 3.129444 15.295063 2.167883 10.402341 4.49561 21.229268 8.094595 37.738147l4.902713 22.453073c2.135415 9.787941 3.878712 17.802615 5.691941 26.149463a7.492683 7.492683 0 1 0 14.6432-3.171902c-1.810732-8.354341-3.556527-16.379005-5.694439-26.169444l-4.902712-22.453073a3992.725854 3992.725854 0 0 1-8.062127-37.603278c-1.098927-5.269854-2.122927-10.274966-3.106966-15.182673-0.302205-1.503532-0.599415-3.002068-0.894127-4.493113-6.36878-32.260995-31.306927-79.180176-65.810731-121.691161-13.042263-16.064312-35.083239-21.733776-54.339435-13.993834-20.342634 8.18201-33.979317 27.530615-34.783531 49.371786-1.353678 36.856507 5.85678 73.191024 21.593912 108.923629 16.736156 37.997893 40.378068 77.234576 70.913249 117.725034a7.490185 7.490185 0 1 0 11.963317-9.02119z" fill="#524F75" /><path d="M411.8528 266.205034a18.117307 18.117307 0 0 1 22.942595 7.502673c18.806634 32.405854 30.382829 57.428917 34.741073 75.069191 4.687922 18.986459 13.486829 49.896273 26.391727 92.724448a9.255961 9.255961 0 0 1-4.837775 11.004254 11.596176 11.596176 0 0 1-12.997308-2.005541c-31.134595-29.338849-52.656078-57.531317-64.569444-84.5824-10.482263-23.796761-16.021854-49.221932-16.621268-76.27801a24.980605 24.980605 0 0 1 14.9504-23.434615z" fill="#FFB8A8" /><path d="M517.577054 587.116644c12.09319-8.466732 28.761912-5.527102 37.228644 6.566088 0.774244 1.098927 1.458576 2.260293 2.055492 3.461619l42.918088 86.602927a13.679141 13.679141 0 0 1-4.408195 17.273132 13.366946 13.366946 0 0 1-17.542868-1.9456l-64.786732-71.128039c-10.175063-11.169093-9.370849-28.472195 1.798244-38.642264 0.869151-0.786732 1.780761-1.521015 2.737327-2.187863z" fill="#FF7E3C" /><path d="M520.439259 591.210146a22.353171 22.353171 0 0 0-3.701386 33.37241l64.786732 71.125542a8.361834 8.361834 0 0 0 10.979278 1.218809 8.674029 8.674029 0 0 0 2.799766-10.959297l-42.918088-86.605425a21.733776 21.733776 0 0 0-31.946302-8.152039z m-5.729405-8.187005c14.350985-10.047688 34.139161-6.561093 44.189346 7.792391 0.914107 1.306224 1.73081 2.68238 2.43762 4.110985l42.918087 86.602927a18.666771 18.666771 0 0 1-6.021619 23.581971 18.352078 18.352078 0 0 1-24.096468-2.677386l-64.786732-71.120546c-12.030751-13.212098-11.07918-33.672117 2.130419-45.702868 1.021502-0.934088 2.097951-1.798244 3.229347-2.587474z" fill="#524F75" /><path d="M454.730927 568.976859a12.757541 12.757541 0 0 1 18.464468-4.250849l37.298576 26.084527-4.041054 8.931278-45.108449-14.171161a11.526244 11.526244 0 0 1-6.613541-16.593795z" fill="#62CCA3" /><path d="M470.048468 569.061776a7.764917 7.764917 0 0 0-11.189073 2.78478 6.528624 6.528624 0 0 0 3.906185 9.32839l45.348215 13.381932-5.996644 2.812254 3.883708-8.996215 1.793248 6.119024-37.745639-25.430165z m4.021073-9.218498c0.536976 0.284722 1.056468 0.596917 1.560976 0.936585l41.184781 27.747903-7.277893 16.866029-49.596566-14.63321a16.516371 16.516371 0 0 1-9.895337-23.616936 17.757659 17.757659 0 0 1 24.026537-7.300371z" fill="#524F75" /><path d="M518.188956 521.245971a12.755044 12.755044 0 0 0-10.309932 15.894478l11.753522 43.967063 9.772956-0.741775 2.112937-47.233874a11.521249 11.521249 0 0 0-13.329483-11.88839z" fill="#62CCA3" /><path d="M527.085268 533.938576c0-0.264741-0.014985-0.529483-0.047453-0.791727a7.764917 7.764917 0 0 0-8.521678-6.925737 6.518634 6.518634 0 0 0-5.547083 8.459239l14.266068 45.075981-5.684449-3.401678 9.630595-1.810732-4.071024 4.910205-0.024976-45.515551z m-9.595629-17.655259a17.750166 17.750166 0 0 1 19.583376 17.652761l0.024975 49.659005-18.054868 3.394185-15.597268-49.296858a16.513873 16.513873 0 0 1 14.043785-21.409093z" fill="#524F75" /><path d="M475.323317 534.450576a16.463922 16.463922 0 0 1 25.155434 5.584546l21.1968 43.495024-7.317853 6.513639-38.744664-29.93077a16.359024 16.359024 0 0 1-0.289717-25.662439z" fill="#62CCA3" /><path d="M495.980644 542.230478a11.466302 11.466302 0 0 0-19.368585-2.003044 11.363902 11.363902 0 0 0 2.048 15.934439l35.465365 27.400742 1.396137-1.243786-19.540917-40.088351z m-23.801756-11.66361a21.459044 21.459044 0 0 1 32.780488 7.287883l22.857678 46.894205-13.247064 11.783493-42.018966-32.463298a21.354146 21.354146 0 0 1-0.374634-33.499785z" fill="#524F75" /><path d="M507.824078 653.277034l49.05959 0.639376c13.057249 0.546966 23.189854 11.603668 22.632898 24.693385a24.031532 24.031532 0 0 1-0.269737 2.712351c-2.048 12.942361-14.176156 21.776234-27.083551 19.730732a24.014049 24.014049 0 0 1-2.65241-0.579434l-43.782244-10.829424" fill="#FAF1E1" /><path d="M507.476917 661.371629l49.05959-0.217288c8.706498 0.217288 15.764605 7.650029 15.537327 16.613776-0.014985 0.62439-0.064937 1.243785-0.152351 1.860683-1.24878 8.883824-9.433288 15.065288-18.272156 13.824a15.719649 15.719649 0 0 1-1.818225-0.364644l-44.179356-10.117619a7.492683 7.492683 0 1 0-3.344234 14.605736l43.964566 10.067668c0.939083 0.249756 2.110439 0.482029 3.294283 0.649366 17.040859 2.395161 32.795473-9.51321 35.195629-26.581541 0.164839-1.183844 0.262244-2.37518 0.292215-3.571512 0.434576-17.230673-13.159649-31.551688-30.365346-31.973776l-49.276879 0.21479a7.492683 7.492683 0 0 0 0.064937 14.990361z" fill="#524F75" />
	</g>

</svg>